<?xml version="1.0" encoding="UTF-8"?><svg xmlns="http://www.w3.org/2000/svg" xmlns:xlink="http://www.w3.org/1999/xlink" viewBox="0 0 750 500"><defs><style>.cls-1{fill:url(#linear-gradient-241);}.cls-2{fill:url(#linear-gradient-132);}.cls-3{fill:url(#linear-gradient-118);}.cls-4{fill:url(#linear-gradient-162);}.cls-5{fill:url(#radial-gradient-4);}.cls-5,.cls-6,.cls-7,.cls-8,.cls-9,.cls-10,.cls-11{mix-blend-mode:screen;}.cls-5,.cls-8,.cls-9,.cls-10{opacity:.96;}.cls-12{fill:url(#linear-gradient-61);}.cls-13{fill:url(#linear-gradient-136);}.cls-14{fill:url(#linear-gradient-15);}.cls-15{fill:url(#linear-gradient-13);}.cls-16{fill:url(#linear-gradient-107);}.cls-17{fill:url(#linear-gradient-28);}.cls-18{fill:url(#linear-gradient-158);}.cls-19{fill:url(#linear-gradient-230);}.cls-20{fill:url(#linear-gradient-65);}.cls-21{fill:url(#linear-gradient-201);}.cls-22{fill:url(#linear-gradient-145);}.cls-23{fill:url(#linear-gradient-69);}.cls-24{fill:url(#linear-gradient-53);}.cls-25{fill:url(#linear-gradient-222);}.cls-26{fill:url(#linear-gradient-42);}.cls-27{fill:url(#linear-gradient-199);}.cls-28{fill:url(#linear-gradient-46);}.cls-29{fill:url(#linear-gradient-273);}.cls-30{fill:url(#linear-gradient-182);}.cls-31{fill:url(#linear-gradient-264);}.cls-32{fill:url(#linear-gradient-155);}.cls-33{fill:url(#linear-gradient-256);}.cls-34{fill:url(#linear-gradient-142);}.cls-35{fill:url(#linear-gradient-190);}.cls-36{fill:url(#linear-gradient-70);}.cls-37{fill:url(#linear-gradient-205);}.cls-38{fill:url(#linear-gradient-251);}.cls-39{fill:url(#linear-gradient-60);}.cls-40{fill:url(#linear-gradient-209);}.cls-41{fill:url(#linear-gradient-93);}.cls-42{fill:url(#linear-gradient-95);}.cls-43{fill:url(#linear-gradient-2);}.cls-44{fill:url(#linear-gradient-100);}.cls-45{fill:url(#linear-gradient-150);}.cls-46{fill:url(#linear-gradient-87);}.cls-47{fill:url(#linear-gradient-223);}.cls-48{fill:url(#linear-gradient-163);}.cls-49{fill:url(#linear-gradient-64);}.cls-50{fill:url(#linear-gradient-173);}.cls-51{fill:url(#linear-gradient-56);}.cls-52{fill:url(#linear-gradient-43);}.cls-53{fill:url(#linear-gradient-25);}.cls-54{fill:url(#linear-gradient-82);}.cls-55{fill:url(#linear-gradient-239);}.cls-56{fill:url(#linear-gradient-198);}.cls-57{fill:url(#linear-gradient-231);}.cls-58{fill:url(#linear-gradient-138);}.cls-59{fill:url(#linear-gradient-211);}.cls-60{fill:url(#linear-gradient-10);}.cls-61{fill:url(#linear-gradient-12);}.cls-62{fill:url(#linear-gradient-40);}.cls-63{fill:url(#linear-gradient-27);}.cls-64{fill:url(#linear-gradient-174);}.cls-65{fill:url(#linear-gradient-68);}.cls-66{fill:url(#linear-gradient-202);}.cls-67{fill:url(#linear-gradient-267);}.cls-68{fill:url(#linear-gradient-172);}.cls-69{fill:url(#linear-gradient-196);}.cls-70{fill:url(#linear-gradient-37);}.cls-6{fill:url(#radial-gradient-6);}.cls-71{fill:url(#linear-gradient-159);}.cls-72{fill:url(#linear-gradient-248);}.cls-73{fill:url(#linear-gradient-277);}.cls-74{fill:url(#linear-gradient-188);}.cls-75{fill:url(#linear-gradient-75);}.cls-76{fill:url(#linear-gradient-274);}.cls-77{fill:url(#linear-gradient-55);}.cls-78{fill:url(#linear-gradient-116);}.cls-79{fill:url(#linear-gradient-232);}.cls-80{fill:url(#linear-gradient-280);}.cls-81{fill:url(#linear-gradient-39);}.cls-82{fill:url(#linear-gradient-160);}.cls-83{fill:url(#linear-gradient-271);}.cls-84{fill:url(#linear-gradient-192);}.cls-85{fill:url(#linear-gradient-176);}.cls-86{fill:url(#linear-gradient-89);}.cls-87{fill:url(#linear-gradient-262);}.cls-88{fill:url(#linear-gradient-220);}.cls-89{fill:url(#linear-gradient-52);}.cls-7{fill:url(#radial-gradient-5);}.cls-90{fill:url(#linear-gradient-215);}.cls-91{fill:url(#linear-gradient-113);}.cls-92{fill:url(#linear-gradient-254);}.cls-93{fill:url(#linear-gradient-122);}.cls-94{fill:url(#linear-gradient-166);}.cls-95{fill:url(#linear-gradient-58);}.cls-96{fill:url(#linear-gradient-191);}.cls-97{fill:url(#linear-gradient-175);}.cls-98{fill:url(#linear-gradient-171);}.cls-99{fill:url(#linear-gradient-242);}.cls-100{fill:url(#linear-gradient-152);}.cls-101{fill:url(#linear-gradient-47);}.cls-102{fill:url(#linear-gradient-26);}.cls-103{fill:url(#linear-gradient-217);}.cls-104{fill:url(#linear-gradient-74);}.cls-105{fill:url(#linear-gradient-257);}.cls-106{fill:url(#linear-gradient-181);}.cls-107{fill:url(#linear-gradient-146);}.cls-108{fill:url(#linear-gradient-97);}.cls-109{fill:url(#linear-gradient-72);}.cls-110{fill:url(#linear-gradient-157);}.cls-111{fill:url(#linear-gradient-4);}.cls-112{fill:url(#linear-gradient-238);}.cls-113{fill:#090808;}.cls-114{fill:url(#linear-gradient-35);}.cls-115{fill:url(#linear-gradient-30);}.cls-116{fill:url(#linear-gradient-125);}.cls-117{fill:url(#linear-gradient-161);}.cls-118{fill:url(#linear-gradient-76);}.cls-119{fill:url(#linear-gradient-260);}.cls-120{fill:url(#linear-gradient-240);}.cls-121{fill:url(#linear-gradient-143);}.cls-122{fill:url(#linear-gradient-235);}.cls-123{fill:url(#linear-gradient-109);}.cls-124{fill:url(#linear-gradient-73);}.cls-125{fill:url(#linear-gradient-252);}.cls-126{fill:url(#linear-gradient-71);}.cls-127{fill:url(#linear-gradient-44);}.cls-128{fill:url(#linear-gradient-144);}.cls-129{fill:url(#linear-gradient-96);}.cls-130{fill:url(#linear-gradient-49);}.cls-131{fill:url(#linear-gradient-3);}.cls-132{fill:url(#linear-gradient-34);}.cls-133{fill:url(#linear-gradient-270);}.cls-134{fill:url(#linear-gradient-5);}.cls-135{fill:url(#linear-gradient-225);}.cls-136{fill:url(#linear-gradient-38);}.cls-137{fill:url(#linear-gradient-91);}.cls-138{fill:url(#linear-gradient-149);}.cls-139{fill:url(#linear-gradient-22);}.cls-140{fill:url(#linear-gradient-24);}.cls-141{fill:url(#linear-gradient-133);}.cls-142{fill:url(#linear-gradient-226);}.cls-143{fill:url(#linear-gradient-94);}.cls-144{fill:url(#linear-gradient-261);}.cls-145{fill:url(#linear-gradient-233);}.cls-146{fill:url(#linear-gradient-54);}.cls-147{isolation:isolate;}.cls-148{fill:url(#linear-gradient-147);}.cls-149{fill:url(#linear-gradient-221);}.cls-150{fill:url(#linear-gradient-92);}.cls-151{fill:url(#linear-gradient-90);}.cls-152{fill:url(#linear-gradient-33);}.cls-153{fill:url(#linear-gradient-194);}.cls-154{fill:url(#linear-gradient-79);}.cls-155{fill:url(#linear-gradient-249);}.cls-156{fill:url(#linear-gradient-78);}.cls-157{fill:url(#linear-gradient-51);}.cls-158{fill:url(#linear-gradient-8);}.cls-159{fill:url(#linear-gradient-247);}.cls-160{fill:url(#linear-gradient-272);}.cls-161{fill:url(#linear-gradient-268);}.cls-162{fill:url(#linear-gradient-229);}.cls-163{fill:url(#linear-gradient-234);}.cls-164{fill:url(#linear-gradient-66);}.cls-165{fill:url(#linear-gradient-57);}.cls-166{fill:url(#linear-gradient-77);}.cls-167{fill:url(#linear-gradient-131);}.cls-168{fill:url(#linear-gradient-129);}.cls-169{fill:url(#linear-gradient-168);}.cls-170{fill:url(#linear-gradient-276);}.cls-171{fill:url(#linear-gradient-103);}.cls-172{fill:url(#linear-gradient-135);}.cls-173{fill:url(#linear-gradient-121);}.cls-8{fill:url(#radial-gradient-2);}.cls-174{fill:url(#linear-gradient-170);}.cls-175{fill:url(#linear-gradient-110);}.cls-176{fill:url(#linear-gradient-88);}.cls-177{fill:url(#linear-gradient-189);}.cls-178{fill:url(#linear-gradient-228);}.cls-179{fill:url(#linear-gradient-124);}.cls-180{fill:url(#linear-gradient-165);}.cls-181{fill:url(#linear-gradient-128);}.cls-182{fill:url(#linear-gradient-164);}.cls-183{fill:url(#linear-gradient-14);}.cls-184{fill:url(#linear-gradient-62);}.cls-185{fill:url(#linear-gradient-156);}.cls-186{fill:url(#linear-gradient-265);}.cls-187{fill:url(#linear-gradient-29);}.cls-188{fill:url(#linear-gradient-284);}.cls-189{fill:url(#linear-gradient-177);}.cls-190{fill:url(#linear-gradient-227);}.cls-191{fill:url(#linear-gradient-20);}.cls-9{fill:url(#radial-gradient-3);}.cls-192{fill:url(#linear-gradient-106);}.cls-193{fill:url(#linear-gradient-245);}.cls-194{fill:url(#linear-gradient-67);}.cls-195{fill:url(#linear-gradient-139);}.cls-196{fill:url(#linear-gradient-148);}.cls-197{fill:url(#linear-gradient-17);}.cls-198{fill:url(#linear-gradient-141);}.cls-199{fill:url(#linear-gradient-50);}.cls-200{fill:url(#linear-gradient-7);}.cls-10{fill:url(#radial-gradient);}.cls-201{fill:url(#linear-gradient-185);}.cls-11{fill:url(#radial-gradient-7);}.cls-202{fill:url(#linear-gradient-216);}.cls-203{fill:url(#linear-gradient-269);}.cls-204{fill:url(#linear-gradient-134);}.cls-205{fill:url(#linear-gradient-253);}.cls-206{fill:url(#linear-gradient-9);}.cls-207{fill:url(#linear-gradient-236);}.cls-208{fill:url(#linear-gradient-104);}.cls-209{fill:url(#linear-gradient-59);}.cls-210{fill:url(#linear-gradient-286);}.cls-211{fill:url(#linear-gradient-11);}.cls-212{fill:url(#linear-gradient-184);}.cls-213{fill:url(#linear-gradient-120);}.cls-214{fill:url(#linear-gradient-169);}.cls-215{fill:url(#linear-gradient-108);}.cls-216{fill:url(#linear-gradient-19);}.cls-217{fill:url(#linear-gradient-101);}.cls-218{fill:url(#linear-gradient-80);}.cls-219{fill:url(#linear-gradient-183);}.cls-220{fill:url(#linear-gradient-244);}.cls-221{fill:url(#linear-gradient-6);}.cls-222{fill:url(#linear-gradient-285);}.cls-223{fill:url(#linear-gradient-258);}.cls-224{fill:url(#linear-gradient-83);}.cls-225{fill:url(#linear-gradient-112);}.cls-226{fill:url(#linear-gradient-154);}.cls-227{fill:url(#linear-gradient-203);}.cls-228{fill:url(#linear-gradient-200);}.cls-229{fill:url(#linear-gradient-206);}.cls-230{fill:url(#linear-gradient-263);}.cls-231{fill:url(#linear-gradient-278);}.cls-232{fill:url(#linear-gradient-105);}.cls-233{fill:url(#linear-gradient-179);}.cls-234{fill:url(#linear-gradient-243);}.cls-235{fill:url(#linear-gradient-137);}.cls-236{fill:url(#linear-gradient-281);}.cls-237{fill:url(#linear-gradient-167);}.cls-238{fill:url(#linear-gradient-36);}.cls-239{fill:url(#linear-gradient-21);}.cls-240{fill:url(#linear-gradient-119);}.cls-241{fill:url(#linear-gradient-45);}.cls-242{fill:url(#linear-gradient-214);}.cls-243{fill:url(#linear-gradient-180);}.cls-244{fill:url(#linear-gradient-237);}.cls-245{fill:url(#linear-gradient-127);}.cls-246{fill:url(#linear-gradient-178);}.cls-247{fill:url(#linear-gradient-85);}.cls-248{fill:url(#linear-gradient-98);}.cls-249{fill:url(#linear-gradient-81);}.cls-250{fill:url(#linear-gradient-151);}.cls-251{fill:url(#linear-gradient-255);}.cls-252{fill:url(#linear-gradient-84);}.cls-253{fill:url(#linear-gradient-114);}.cls-254{fill:url(#linear-gradient-140);}.cls-255{fill:url(#linear-gradient-210);}.cls-256{fill:url(#linear-gradient-213);}.cls-257{fill:url(#linear-gradient-153);}.cls-258{fill:url(#linear-gradient-117);}.cls-259{fill:url(#linear-gradient-48);}.cls-260{fill:url(#linear-gradient-266);}.cls-261{fill:url(#linear-gradient-207);}.cls-262{fill:url(#linear-gradient-212);}.cls-263{fill:url(#linear-gradient-204);}.cls-264{fill:url(#linear-gradient-102);}.cls-265{fill:url(#linear-gradient-282);}.cls-266{fill:url(#linear-gradient-32);}.cls-267{fill:url(#linear-gradient-86);}.cls-268{fill:url(#linear-gradient-246);}.cls-269{fill:url(#linear-gradient-41);}.cls-270{fill:url(#linear-gradient-130);}.cls-271{fill:url(#linear-gradient-197);}.cls-272{fill:url(#linear-gradient-279);}.cls-273{fill:url(#linear-gradient-16);}.cls-274{fill:url(#linear-gradient-208);}.cls-275{fill:url(#linear-gradient-111);}.cls-276{fill:url(#linear-gradient-195);}.cls-277{fill:url(#linear-gradient-187);}.cls-278{fill:url(#linear-gradient);}.cls-279{fill:url(#linear-gradient-193);}.cls-280{fill:url(#linear-gradient-23);}.cls-281{fill:url(#linear-gradient-31);}.cls-282{fill:url(#linear-gradient-218);}.cls-283{fill:url(#linear-gradient-63);}.cls-284{fill:url(#linear-gradient-219);}.cls-285{fill:url(#linear-gradient-115);}.cls-286{fill:url(#linear-gradient-275);}.cls-287{fill:url(#linear-gradient-259);}.cls-288{fill:url(#linear-gradient-126);}.cls-289{fill:url(#linear-gradient-283);}.cls-290{fill:url(#linear-gradient-186);}.cls-291{fill:url(#linear-gradient-99);}.cls-292{fill:url(#linear-gradient-250);}.cls-293{fill:url(#linear-gradient-18);}.cls-294{fill:url(#linear-gradient-123);}.cls-295{fill:url(#linear-gradient-224);}</style><radialGradient id="radial-gradient" cx="727.79" cy="236.04" fx="727.79" fy="236.04" r="257.33" gradientTransform="translate(-1.4 -2.86) scale(1)" gradientUnits="userSpaceOnUse"><stop offset=".02" stop-color="#ed1c24"/><stop offset=".05" stop-color="#c9171e"/><stop offset=".11" stop-color="#9a1217"/><stop offset=".16" stop-color="#700d11"/><stop offset=".22" stop-color="#4d090b"/><stop offset=".28" stop-color="#310507"/><stop offset=".34" stop-color="#1b0304"/><stop offset=".41" stop-color="#0c0101"/><stop offset=".49" stop-color="#020000"/><stop offset=".6" stop-color="#000"/></radialGradient><radialGradient id="radial-gradient-2" cx="734.46" cy="320.04" fx="734.46" fy="320.04" r="257.33" xlink:href="#radial-gradient"/><radialGradient id="radial-gradient-3" cx="6.99" cy="111.34" fx="6.99" fy="111.34" r="257.33" xlink:href="#radial-gradient"/><radialGradient id="radial-gradient-4" cx="65.11" cy="238.71" fx="65.11" fy="238.71" r="368.74" xlink:href="#radial-gradient"/><radialGradient id="radial-gradient-5" cx="457.13" cy="107.47" fx="457.13" fy="107.47" r="315.66" gradientTransform="translate(42.33 -2.86) scale(.69 1.01)" gradientUnits="userSpaceOnUse"><stop offset=".02" stop-color="#ed1c24"/><stop offset=".1" stop-color="#b3151b"/><stop offset=".2" stop-color="#740d11"/><stop offset=".28" stop-color="#42070a"/><stop offset=".36" stop-color="#1e0304"/><stop offset=".42" stop-color="#080001"/><stop offset=".46" stop-color="#000"/></radialGradient><radialGradient id="radial-gradient-6" cx="555.71" cy="225.11" fx="555.71" fy="225.11" r="315.66" xlink:href="#radial-gradient-5"/><radialGradient id="radial-gradient-7" cx="462.25" cy="403.82" fx="462.25" fy="403.82" r="315.67" xlink:href="#radial-gradient-5"/><linearGradient id="linear-gradient" x1="20.93" y1="522.01" x2="50.24" y2="492.7" gradientUnits="userSpaceOnUse"><stop offset="0" stop-color="#000"/><stop offset=".71" stop-color="#121010"/></linearGradient><linearGradient id="linear-gradient-2" x1="90.48" y1="522.01" x2="119.79" y2="492.7" xlink:href="#linear-gradient"/><linearGradient id="linear-gradient-3" x1="160.03" y1="522.01" x2="189.34" y2="492.7" xlink:href="#linear-gradient"/><linearGradient id="linear-gradient-4" x1="229.59" y1="522.01" x2="258.9" y2="492.7" xlink:href="#linear-gradient"/><linearGradient id="linear-gradient-5" x1="299.14" y1="522.01" x2="328.45" y2="492.7" xlink:href="#linear-gradient"/><linearGradient id="linear-gradient-6" x1="368.69" y1="522.01" x2="398" y2="492.7" xlink:href="#linear-gradient"/><linearGradient id="linear-gradient-7" x1="438.25" y1="522.01" x2="467.56" y2="492.7" xlink:href="#linear-gradient"/><linearGradient id="linear-gradient-8" x1="507.8" y1="522.01" x2="537.11" y2="492.7" xlink:href="#linear-gradient"/><linearGradient id="linear-gradient-9" x1="577.35" y1="522.01" x2="606.66" y2="492.7" xlink:href="#linear-gradient"/><linearGradient id="linear-gradient-10" x1="646.91" y1="522.01" x2="676.22" y2="492.7" xlink:href="#linear-gradient"/><linearGradient id="linear-gradient-11" x1="716.03" y1="521.58" x2="745.34" y2="492.27" xlink:href="#linear-gradient"/><linearGradient id="linear-gradient-12" x1="-6.83" y1="508.6" x2="22.57" y2="479.2" xlink:href="#linear-gradient"/><linearGradient id="linear-gradient-13" x1="62.27" y1="508.11" x2="91.65" y2="478.73" xlink:href="#linear-gradient"/><linearGradient id="linear-gradient-14" x1="131.83" y1="508.11" x2="161.21" y2="478.73" xlink:href="#linear-gradient"/><linearGradient id="linear-gradient-15" x1="201.38" y1="508.11" x2="230.76" y2="478.73" xlink:href="#linear-gradient"/><linearGradient id="linear-gradient-16" x1="270.94" y1="508.11" x2="300.31" y2="478.73" xlink:href="#linear-gradient"/><linearGradient id="linear-gradient-17" x1="340.49" y1="508.11" x2="369.87" y2="478.73" xlink:href="#linear-gradient"/><linearGradient id="linear-gradient-18" x1="410.04" y1="508.11" x2="439.42" y2="478.73" xlink:href="#linear-gradient"/><linearGradient id="linear-gradient-19" x1="479.59" y1="508.11" x2="508.97" y2="478.73" xlink:href="#linear-gradient"/><linearGradient id="linear-gradient-20" x1="549.15" y1="508.11" x2="578.53" y2="478.73" xlink:href="#linear-gradient"/><linearGradient id="linear-gradient-21" x1="618.7" y1="508.11" x2="648.08" y2="478.73" xlink:href="#linear-gradient"/><linearGradient id="linear-gradient-22" x1="688.25" y1="508.11" x2="717.63" y2="478.73" xlink:href="#linear-gradient"/><linearGradient id="linear-gradient-23" x1="28.91" y1="488.98" x2="58.33" y2="459.57" xlink:href="#linear-gradient"/><linearGradient id="linear-gradient-24" x1="98.46" y1="488.98" x2="127.88" y2="459.57" xlink:href="#linear-gradient"/><linearGradient id="linear-gradient-25" x1="168.01" y1="488.98" x2="197.43" y2="459.57" xlink:href="#linear-gradient"/><linearGradient id="linear-gradient-26" x1="237.57" y1="488.98" x2="266.99" y2="459.57" xlink:href="#linear-gradient"/><linearGradient id="linear-gradient-27" x1="307.12" y1="488.98" x2="336.54" y2="459.57" xlink:href="#linear-gradient"/><linearGradient id="linear-gradient-28" x1="376.67" y1="488.98" x2="406.09" y2="459.57" xlink:href="#linear-gradient"/><linearGradient id="linear-gradient-29" x1="446.23" y1="488.98" x2="475.65" y2="459.57" xlink:href="#linear-gradient"/><linearGradient id="linear-gradient-30" x1="515.78" y1="488.98" x2="545.2" y2="459.57" xlink:href="#linear-gradient"/><linearGradient id="linear-gradient-31" x1="585.33" y1="488.98" x2="614.75" y2="459.57" xlink:href="#linear-gradient"/><linearGradient id="linear-gradient-32" x1="654.89" y1="488.98" x2="684.31" y2="459.57" xlink:href="#linear-gradient"/><linearGradient id="linear-gradient-33" x1="724.44" y1="488.98" x2="753.86" y2="459.57" xlink:href="#linear-gradient"/><linearGradient id="linear-gradient-34" x1="-5.4" y1="468.85" x2="24.02" y2="439.42" xlink:href="#linear-gradient"/><linearGradient id="linear-gradient-35" x1="63.69" y1="468.37" x2="93.1" y2="438.95" xlink:href="#linear-gradient"/><linearGradient id="linear-gradient-36" x1="133.24" y1="468.37" x2="162.66" y2="438.95" xlink:href="#linear-gradient"/><linearGradient id="linear-gradient-37" x1="202.79" y1="468.37" x2="232.21" y2="438.95" xlink:href="#linear-gradient"/><linearGradient id="linear-gradient-38" x1="272.35" y1="468.37" x2="301.76" y2="438.95" xlink:href="#linear-gradient"/><linearGradient id="linear-gradient-39" x1="341.9" y1="468.37" x2="371.32" y2="438.95" xlink:href="#linear-gradient"/><linearGradient id="linear-gradient-40" x1="411.45" y1="468.37" x2="440.87" y2="438.95" xlink:href="#linear-gradient"/><linearGradient id="linear-gradient-41" x1="481" y1="468.37" x2="510.42" y2="438.95" xlink:href="#linear-gradient"/><linearGradient id="linear-gradient-42" x1="550.56" y1="468.37" x2="579.98" y2="438.95" xlink:href="#linear-gradient"/><linearGradient id="linear-gradient-43" x1="620.11" y1="468.37" x2="649.53" y2="438.95" xlink:href="#linear-gradient"/><linearGradient id="linear-gradient-44" x1="689.66" y1="468.37" x2="719.08" y2="438.95" xlink:href="#linear-gradient"/><linearGradient id="linear-gradient-45" x1="28.91" y1="447.76" x2="58.33" y2="418.34" xlink:href="#linear-gradient"/><linearGradient id="linear-gradient-46" x1="98.46" y1="447.76" x2="127.88" y2="418.34" xlink:href="#linear-gradient"/><linearGradient id="linear-gradient-47" x1="168.01" y1="447.76" x2="197.43" y2="418.34" xlink:href="#linear-gradient"/><linearGradient id="linear-gradient-48" x1="237.57" y1="447.76" x2="266.99" y2="418.34" xlink:href="#linear-gradient"/><linearGradient id="linear-gradient-49" x1="307.12" y1="447.76" x2="336.54" y2="418.34" xlink:href="#linear-gradient"/><linearGradient id="linear-gradient-50" x1="376.67" y1="447.76" x2="406.09" y2="418.34" xlink:href="#linear-gradient"/><linearGradient id="linear-gradient-51" x1="446.23" y1="447.76" x2="475.65" y2="418.34" xlink:href="#linear-gradient"/><linearGradient id="linear-gradient-52" x1="515.78" y1="447.76" x2="545.2" y2="418.34" xlink:href="#linear-gradient"/><linearGradient id="linear-gradient-53" x1="585.33" y1="447.76" x2="614.75" y2="418.34" xlink:href="#linear-gradient"/><linearGradient id="linear-gradient-54" x1="654.89" y1="447.76" x2="684.31" y2="418.34" xlink:href="#linear-gradient"/><linearGradient id="linear-gradient-55" x1="724.44" y1="447.76" x2="753.86" y2="418.34" xlink:href="#linear-gradient"/><linearGradient id="linear-gradient-56" x1="-5.4" y1="427.62" x2="24.02" y2="398.2" xlink:href="#linear-gradient"/><linearGradient id="linear-gradient-57" x1="63.69" y1="427.15" x2="93.1" y2="397.73" xlink:href="#linear-gradient"/><linearGradient id="linear-gradient-58" x1="133.24" y1="427.15" x2="162.66" y2="397.73" xlink:href="#linear-gradient"/><linearGradient id="linear-gradient-59" x1="202.79" y1="427.15" x2="232.21" y2="397.73" xlink:href="#linear-gradient"/><linearGradient id="linear-gradient-60" x1="272.35" y1="427.15" x2="301.76" y2="397.73" xlink:href="#linear-gradient"/><linearGradient id="linear-gradient-61" x1="341.9" y1="427.15" x2="371.32" y2="397.73" xlink:href="#linear-gradient"/><linearGradient id="linear-gradient-62" x1="411.45" y1="427.15" x2="440.87" y2="397.73" xlink:href="#linear-gradient"/><linearGradient id="linear-gradient-63" x1="481" y1="427.15" x2="510.42" y2="397.73" xlink:href="#linear-gradient"/><linearGradient id="linear-gradient-64" x1="550.56" y1="427.15" x2="579.98" y2="397.73" xlink:href="#linear-gradient"/><linearGradient id="linear-gradient-65" x1="620.11" y1="427.15" x2="649.53" y2="397.73" xlink:href="#linear-gradient"/><linearGradient id="linear-gradient-66" x1="689.66" y1="427.15" x2="719.08" y2="397.73" xlink:href="#linear-gradient"/><linearGradient id="linear-gradient-67" x1="28.91" y1="406.54" x2="58.33" y2="377.12" xlink:href="#linear-gradient"/><linearGradient id="linear-gradient-68" x1="98.46" y1="406.54" x2="127.88" y2="377.12" xlink:href="#linear-gradient"/><linearGradient id="linear-gradient-69" x1="168.01" y1="406.54" x2="197.43" y2="377.12" xlink:href="#linear-gradient"/><linearGradient id="linear-gradient-70" x1="237.57" y1="406.54" x2="266.99" y2="377.12" xlink:href="#linear-gradient"/><linearGradient id="linear-gradient-71" x1="307.12" y1="406.54" x2="336.54" y2="377.12" xlink:href="#linear-gradient"/><linearGradient id="linear-gradient-72" x1="376.67" y1="406.54" x2="406.09" y2="377.12" xlink:href="#linear-gradient"/><linearGradient id="linear-gradient-73" x1="446.23" y1="406.54" x2="475.65" y2="377.12" xlink:href="#linear-gradient"/><linearGradient id="linear-gradient-74" x1="515.78" y1="406.54" x2="545.2" y2="377.12" xlink:href="#linear-gradient"/><linearGradient id="linear-gradient-75" x1="585.33" y1="406.54" x2="614.75" y2="377.12" xlink:href="#linear-gradient"/><linearGradient id="linear-gradient-76" x1="654.89" y1="406.54" x2="684.31" y2="377.12" xlink:href="#linear-gradient"/><linearGradient id="linear-gradient-77" x1="724.44" y1="406.54" x2="753.86" y2="377.12" xlink:href="#linear-gradient"/><linearGradient id="linear-gradient-78" x1="-5.4" y1="386.4" x2="24.02" y2="356.98" xlink:href="#linear-gradient"/><linearGradient id="linear-gradient-79" x1="63.69" y1="385.93" x2="93.1" y2="356.51" xlink:href="#linear-gradient"/><linearGradient id="linear-gradient-80" x1="133.24" y1="385.93" x2="162.66" y2="356.51" xlink:href="#linear-gradient"/><linearGradient id="linear-gradient-81" x1="202.79" y1="385.93" x2="232.21" y2="356.51" xlink:href="#linear-gradient"/><linearGradient id="linear-gradient-82" x1="272.35" y1="385.93" x2="301.76" y2="356.51" xlink:href="#linear-gradient"/><linearGradient id="linear-gradient-83" x1="341.9" y1="385.93" x2="371.32" y2="356.51" xlink:href="#linear-gradient"/><linearGradient id="linear-gradient-84" x1="411.45" y1="385.93" x2="440.87" y2="356.51" xlink:href="#linear-gradient"/><linearGradient id="linear-gradient-85" x1="481" y1="385.93" x2="510.42" y2="356.51" xlink:href="#linear-gradient"/><linearGradient id="linear-gradient-86" x1="550.56" y1="385.93" x2="579.98" y2="356.51" xlink:href="#linear-gradient"/><linearGradient id="linear-gradient-87" x1="620.11" y1="385.93" x2="649.53" y2="356.51" xlink:href="#linear-gradient"/><linearGradient id="linear-gradient-88" x1="689.66" y1="385.93" x2="719.08" y2="356.51" xlink:href="#linear-gradient"/><linearGradient id="linear-gradient-89" x1="28.91" y1="365.31" x2="58.33" y2="335.9" xlink:href="#linear-gradient"/><linearGradient id="linear-gradient-90" x1="98.46" y1="365.31" x2="127.88" y2="335.9" xlink:href="#linear-gradient"/><linearGradient id="linear-gradient-91" x1="168.01" y1="365.31" x2="197.43" y2="335.9" xlink:href="#linear-gradient"/><linearGradient id="linear-gradient-92" x1="237.57" y1="365.31" x2="266.99" y2="335.9" xlink:href="#linear-gradient"/><linearGradient id="linear-gradient-93" x1="307.12" y1="365.31" x2="336.54" y2="335.9" xlink:href="#linear-gradient"/><linearGradient id="linear-gradient-94" x1="376.67" y1="365.31" x2="406.09" y2="335.9" xlink:href="#linear-gradient"/><linearGradient id="linear-gradient-95" x1="446.23" y1="365.31" x2="475.65" y2="335.9" xlink:href="#linear-gradient"/><linearGradient id="linear-gradient-96" x1="515.78" y1="365.31" x2="545.2" y2="335.9" xlink:href="#linear-gradient"/><linearGradient id="linear-gradient-97" x1="585.33" y1="365.31" x2="614.75" y2="335.9" xlink:href="#linear-gradient"/><linearGradient id="linear-gradient-98" x1="654.89" y1="365.31" x2="684.31" y2="335.9" xlink:href="#linear-gradient"/><linearGradient id="linear-gradient-99" x1="724.44" y1="365.31" x2="753.86" y2="335.9" xlink:href="#linear-gradient"/><linearGradient id="linear-gradient-100" x1="-5.4" y1="345.18" x2="24.02" y2="315.75" xlink:href="#linear-gradient"/><linearGradient id="linear-gradient-101" x1="63.69" y1="344.7" x2="93.1" y2="315.28" xlink:href="#linear-gradient"/><linearGradient id="linear-gradient-102" x1="133.24" y1="344.7" x2="162.66" y2="315.28" xlink:href="#linear-gradient"/><linearGradient id="linear-gradient-103" x1="202.79" y1="344.7" x2="232.21" y2="315.28" xlink:href="#linear-gradient"/><linearGradient id="linear-gradient-104" x1="272.35" y1="344.7" x2="301.76" y2="315.28" xlink:href="#linear-gradient"/><linearGradient id="linear-gradient-105" x1="341.9" y1="344.7" x2="371.32" y2="315.28" xlink:href="#linear-gradient"/><linearGradient id="linear-gradient-106" x1="411.45" y1="344.7" x2="440.87" y2="315.28" xlink:href="#linear-gradient"/><linearGradient id="linear-gradient-107" x1="481" y1="344.7" x2="510.42" y2="315.28" xlink:href="#linear-gradient"/><linearGradient id="linear-gradient-108" x1="550.56" y1="344.7" x2="579.98" y2="315.28" xlink:href="#linear-gradient"/><linearGradient id="linear-gradient-109" x1="620.11" y1="344.7" x2="649.53" y2="315.28" xlink:href="#linear-gradient"/><linearGradient id="linear-gradient-110" x1="689.66" y1="344.7" x2="719.08" y2="315.28" xlink:href="#linear-gradient"/><linearGradient id="linear-gradient-111" x1="28.91" y1="324.09" x2="58.33" y2="294.67" xlink:href="#linear-gradient"/><linearGradient id="linear-gradient-112" x1="98.46" y1="324.09" x2="127.88" y2="294.67" xlink:href="#linear-gradient"/><linearGradient id="linear-gradient-113" x1="168.01" y1="324.09" x2="197.43" y2="294.67" xlink:href="#linear-gradient"/><linearGradient id="linear-gradient-114" x1="237.57" y1="324.09" x2="266.99" y2="294.67" xlink:href="#linear-gradient"/><linearGradient id="linear-gradient-115" x1="307.12" y1="324.09" x2="336.54" y2="294.67" xlink:href="#linear-gradient"/><linearGradient id="linear-gradient-116" x1="376.67" y1="324.09" x2="406.09" y2="294.67" xlink:href="#linear-gradient"/><linearGradient id="linear-gradient-117" x1="446.23" y1="324.09" x2="475.65" y2="294.67" xlink:href="#linear-gradient"/><linearGradient id="linear-gradient-118" x1="515.78" y1="324.09" x2="545.2" y2="294.67" xlink:href="#linear-gradient"/><linearGradient id="linear-gradient-119" x1="585.33" y1="324.09" x2="614.75" y2="294.67" xlink:href="#linear-gradient"/><linearGradient id="linear-gradient-120" x1="654.89" y1="324.09" x2="684.31" y2="294.67" xlink:href="#linear-gradient"/><linearGradient id="linear-gradient-121" x1="724.44" y1="324.09" x2="753.86" y2="294.67" xlink:href="#linear-gradient"/><linearGradient id="linear-gradient-122" x1="-5.4" y1="303.95" x2="24.02" y2="274.53" xlink:href="#linear-gradient"/><linearGradient id="linear-gradient-123" x1="63.69" y1="303.48" x2="93.1" y2="274.06" xlink:href="#linear-gradient"/><linearGradient id="linear-gradient-124" x1="133.24" y1="303.48" x2="162.66" y2="274.06" xlink:href="#linear-gradient"/><linearGradient id="linear-gradient-125" x1="202.79" y1="303.48" x2="232.21" y2="274.06" xlink:href="#linear-gradient"/><linearGradient id="linear-gradient-126" x1="272.35" y1="303.48" x2="301.76" y2="274.06" xlink:href="#linear-gradient"/><linearGradient id="linear-gradient-127" x1="341.9" y1="303.48" x2="371.32" y2="274.06" xlink:href="#linear-gradient"/><linearGradient id="linear-gradient-128" x1="411.45" y1="303.48" x2="440.87" y2="274.06" xlink:href="#linear-gradient"/><linearGradient id="linear-gradient-129" x1="481" y1="303.48" x2="510.42" y2="274.06" xlink:href="#linear-gradient"/><linearGradient id="linear-gradient-130" x1="550.56" y1="303.48" x2="579.98" y2="274.06" xlink:href="#linear-gradient"/><linearGradient id="linear-gradient-131" x1="620.11" y1="303.48" x2="649.53" y2="274.06" xlink:href="#linear-gradient"/><linearGradient id="linear-gradient-132" x1="689.66" y1="303.48" x2="719.08" y2="274.06" xlink:href="#linear-gradient"/><linearGradient id="linear-gradient-133" x1="28.91" y1="282.87" x2="58.33" y2="253.45" xlink:href="#linear-gradient"/><linearGradient id="linear-gradient-134" x1="98.46" y1="282.87" x2="127.88" y2="253.45" xlink:href="#linear-gradient"/><linearGradient id="linear-gradient-135" x1="168.01" y1="282.87" x2="197.43" y2="253.45" xlink:href="#linear-gradient"/><linearGradient id="linear-gradient-136" x1="237.57" y1="282.87" x2="266.99" y2="253.45" xlink:href="#linear-gradient"/><linearGradient id="linear-gradient-137" x1="307.12" y1="282.87" x2="336.54" y2="253.45" xlink:href="#linear-gradient"/><linearGradient id="linear-gradient-138" x1="376.67" y1="282.87" x2="406.09" y2="253.45" xlink:href="#linear-gradient"/><linearGradient id="linear-gradient-139" x1="446.23" y1="282.87" x2="475.65" y2="253.45" xlink:href="#linear-gradient"/><linearGradient id="linear-gradient-140" x1="515.78" y1="282.87" x2="545.2" y2="253.45" xlink:href="#linear-gradient"/><linearGradient id="linear-gradient-141" x1="585.33" y1="282.87" x2="614.75" y2="253.45" xlink:href="#linear-gradient"/><linearGradient id="linear-gradient-142" x1="654.89" y1="282.87" x2="684.31" y2="253.45" xlink:href="#linear-gradient"/><linearGradient id="linear-gradient-143" x1="724.44" y1="282.87" x2="753.86" y2="253.45" xlink:href="#linear-gradient"/><linearGradient id="linear-gradient-144" x1="-5.4" y1="262.73" x2="24.02" y2="233.31" xlink:href="#linear-gradient"/><linearGradient id="linear-gradient-145" x1="63.69" y1="262.26" x2="93.1" y2="232.84" xlink:href="#linear-gradient"/><linearGradient id="linear-gradient-146" x1="133.24" y1="262.26" x2="162.66" y2="232.84" xlink:href="#linear-gradient"/><linearGradient id="linear-gradient-147" x1="202.79" y1="262.26" x2="232.21" y2="232.84" xlink:href="#linear-gradient"/><linearGradient id="linear-gradient-148" x1="272.35" y1="262.26" x2="301.76" y2="232.84" xlink:href="#linear-gradient"/><linearGradient id="linear-gradient-149" x1="341.9" y1="262.26" x2="371.32" y2="232.84" xlink:href="#linear-gradient"/><linearGradient id="linear-gradient-150" x1="411.45" y1="262.26" x2="440.87" y2="232.84" xlink:href="#linear-gradient"/><linearGradient id="linear-gradient-151" x1="481" y1="262.26" x2="510.42" y2="232.84" xlink:href="#linear-gradient"/><linearGradient id="linear-gradient-152" x1="550.56" y1="262.26" x2="579.98" y2="232.84" xlink:href="#linear-gradient"/><linearGradient id="linear-gradient-153" x1="620.11" y1="262.26" x2="649.53" y2="232.84" xlink:href="#linear-gradient"/><linearGradient id="linear-gradient-154" x1="689.66" y1="262.26" x2="719.08" y2="232.84" xlink:href="#linear-gradient"/><linearGradient id="linear-gradient-155" x1="28.91" y1="241.65" x2="58.33" y2="212.23" xlink:href="#linear-gradient"/><linearGradient id="linear-gradient-156" x1="98.46" y1="241.65" x2="127.88" y2="212.23" xlink:href="#linear-gradient"/><linearGradient id="linear-gradient-157" x1="168.01" y1="241.65" x2="197.43" y2="212.23" xlink:href="#linear-gradient"/><linearGradient id="linear-gradient-158" x1="237.57" y1="241.65" x2="266.99" y2="212.23" xlink:href="#linear-gradient"/><linearGradient id="linear-gradient-159" x1="307.12" y1="241.65" x2="336.54" y2="212.23" xlink:href="#linear-gradient"/><linearGradient id="linear-gradient-160" x1="376.67" y1="241.65" x2="406.09" y2="212.23" xlink:href="#linear-gradient"/><linearGradient id="linear-gradient-161" x1="446.23" y1="241.65" x2="475.65" y2="212.23" xlink:href="#linear-gradient"/><linearGradient id="linear-gradient-162" x1="515.78" y1="241.65" x2="545.2" y2="212.23" xlink:href="#linear-gradient"/><linearGradient id="linear-gradient-163" x1="585.33" y1="241.65" x2="614.75" y2="212.23" xlink:href="#linear-gradient"/><linearGradient id="linear-gradient-164" x1="654.89" y1="241.65" x2="684.31" y2="212.23" xlink:href="#linear-gradient"/><linearGradient id="linear-gradient-165" x1="724.44" y1="241.65" x2="753.86" y2="212.23" xlink:href="#linear-gradient"/><linearGradient id="linear-gradient-166" x1="-5.4" y1="221.51" x2="24.02" y2="192.08" xlink:href="#linear-gradient"/><linearGradient id="linear-gradient-167" x1="63.69" y1="221.03" x2="93.1" y2="191.62" xlink:href="#linear-gradient"/><linearGradient id="linear-gradient-168" x1="133.24" y1="221.03" x2="162.66" y2="191.62" xlink:href="#linear-gradient"/><linearGradient id="linear-gradient-169" x1="202.79" y1="221.03" x2="232.21" y2="191.62" xlink:href="#linear-gradient"/><linearGradient id="linear-gradient-170" x1="272.35" y1="221.03" x2="301.76" y2="191.62" xlink:href="#linear-gradient"/><linearGradient id="linear-gradient-171" x1="341.9" y1="221.03" x2="371.32" y2="191.62" xlink:href="#linear-gradient"/><linearGradient id="linear-gradient-172" x1="411.45" y1="221.03" x2="440.87" y2="191.62" xlink:href="#linear-gradient"/><linearGradient id="linear-gradient-173" x1="481" y1="221.03" x2="510.42" y2="191.62" xlink:href="#linear-gradient"/><linearGradient id="linear-gradient-174" x1="550.56" y1="221.03" x2="579.98" y2="191.62" xlink:href="#linear-gradient"/><linearGradient id="linear-gradient-175" x1="620.11" y1="221.03" x2="649.53" y2="191.62" xlink:href="#linear-gradient"/><linearGradient id="linear-gradient-176" x1="689.66" y1="221.03" x2="719.08" y2="191.62" xlink:href="#linear-gradient"/><linearGradient id="linear-gradient-177" x1="28.91" y1="200.42" x2="58.33" y2="171" xlink:href="#linear-gradient"/><linearGradient id="linear-gradient-178" x1="98.46" y1="200.42" x2="127.88" y2="171" xlink:href="#linear-gradient"/><linearGradient id="linear-gradient-179" x1="168.01" y1="200.42" x2="197.43" y2="171" xlink:href="#linear-gradient"/><linearGradient id="linear-gradient-180" x1="237.57" y1="200.42" x2="266.99" y2="171" xlink:href="#linear-gradient"/><linearGradient id="linear-gradient-181" x1="307.12" y1="200.42" x2="336.54" y2="171" xlink:href="#linear-gradient"/><linearGradient id="linear-gradient-182" x1="376.67" y1="200.42" x2="406.09" y2="171" xlink:href="#linear-gradient"/><linearGradient id="linear-gradient-183" x1="446.23" y1="200.42" x2="475.65" y2="171" xlink:href="#linear-gradient"/><linearGradient id="linear-gradient-184" x1="515.78" y1="200.42" x2="545.2" y2="171" xlink:href="#linear-gradient"/><linearGradient id="linear-gradient-185" x1="585.33" y1="200.42" x2="614.75" y2="171" xlink:href="#linear-gradient"/><linearGradient id="linear-gradient-186" x1="654.89" y1="200.42" x2="684.31" y2="171" xlink:href="#linear-gradient"/><linearGradient id="linear-gradient-187" x1="724.44" y1="200.42" x2="753.86" y2="171" xlink:href="#linear-gradient"/><linearGradient id="linear-gradient-188" x1="-5.4" y1="180.28" x2="24.02" y2="150.86" xlink:href="#linear-gradient"/><linearGradient id="linear-gradient-189" x1="63.69" y1="179.81" x2="93.1" y2="150.39" xlink:href="#linear-gradient"/><linearGradient id="linear-gradient-190" x1="133.24" y1="179.81" x2="162.66" y2="150.39" xlink:href="#linear-gradient"/><linearGradient id="linear-gradient-191" x1="202.79" y1="179.81" x2="232.21" y2="150.39" xlink:href="#linear-gradient"/><linearGradient id="linear-gradient-192" x1="272.35" y1="179.81" x2="301.76" y2="150.39" xlink:href="#linear-gradient"/><linearGradient id="linear-gradient-193" x1="341.9" y1="179.81" x2="371.32" y2="150.39" xlink:href="#linear-gradient"/><linearGradient id="linear-gradient-194" x1="411.45" y1="179.81" x2="440.87" y2="150.39" xlink:href="#linear-gradient"/><linearGradient id="linear-gradient-195" x1="481" y1="179.81" x2="510.42" y2="150.39" xlink:href="#linear-gradient"/><linearGradient id="linear-gradient-196" x1="550.56" y1="179.81" x2="579.98" y2="150.39" xlink:href="#linear-gradient"/><linearGradient id="linear-gradient-197" x1="620.11" y1="179.81" x2="649.53" y2="150.39" xlink:href="#linear-gradient"/><linearGradient id="linear-gradient-198" x1="689.66" y1="179.81" x2="719.08" y2="150.39" xlink:href="#linear-gradient"/><linearGradient id="linear-gradient-199" x1="28.91" y1="159.2" x2="58.33" y2="129.78" xlink:href="#linear-gradient"/><linearGradient id="linear-gradient-200" x1="98.46" y1="159.2" x2="127.88" y2="129.78" xlink:href="#linear-gradient"/><linearGradient id="linear-gradient-201" x1="168.01" y1="159.2" x2="197.43" y2="129.78" xlink:href="#linear-gradient"/><linearGradient id="linear-gradient-202" x1="237.57" y1="159.2" x2="266.99" y2="129.78" xlink:href="#linear-gradient"/><linearGradient id="linear-gradient-203" x1="307.12" y1="159.2" x2="336.54" y2="129.78" xlink:href="#linear-gradient"/><linearGradient id="linear-gradient-204" x1="376.67" y1="159.2" x2="406.09" y2="129.78" xlink:href="#linear-gradient"/><linearGradient id="linear-gradient-205" x1="446.23" y1="159.2" x2="475.65" y2="129.78" xlink:href="#linear-gradient"/><linearGradient id="linear-gradient-206" x1="515.78" y1="159.2" x2="545.2" y2="129.78" xlink:href="#linear-gradient"/><linearGradient id="linear-gradient-207" x1="585.33" y1="159.2" x2="614.75" y2="129.78" xlink:href="#linear-gradient"/><linearGradient id="linear-gradient-208" x1="654.89" y1="159.2" x2="684.31" y2="129.78" xlink:href="#linear-gradient"/><linearGradient id="linear-gradient-209" x1="724.44" y1="159.2" x2="753.86" y2="129.78" xlink:href="#linear-gradient"/><linearGradient id="linear-gradient-210" x1="-5.4" y1="139.06" x2="24.02" y2="109.64" xlink:href="#linear-gradient"/><linearGradient id="linear-gradient-211" x1="63.69" y1="138.59" x2="93.1" y2="109.17" xlink:href="#linear-gradient"/><linearGradient id="linear-gradient-212" x1="133.24" y1="138.59" x2="162.66" y2="109.17" xlink:href="#linear-gradient"/><linearGradient id="linear-gradient-213" x1="202.79" y1="138.59" x2="232.21" y2="109.17" xlink:href="#linear-gradient"/><linearGradient id="linear-gradient-214" x1="272.35" y1="138.59" x2="301.76" y2="109.17" xlink:href="#linear-gradient"/><linearGradient id="linear-gradient-215" x1="341.9" y1="138.59" x2="371.32" y2="109.17" xlink:href="#linear-gradient"/><linearGradient id="linear-gradient-216" x1="411.45" y1="138.59" x2="440.87" y2="109.17" xlink:href="#linear-gradient"/><linearGradient id="linear-gradient-217" x1="481" y1="138.59" x2="510.42" y2="109.17" xlink:href="#linear-gradient"/><linearGradient id="linear-gradient-218" x1="550.56" y1="138.59" x2="579.98" y2="109.17" xlink:href="#linear-gradient"/><linearGradient id="linear-gradient-219" x1="620.11" y1="138.59" x2="649.53" y2="109.17" xlink:href="#linear-gradient"/><linearGradient id="linear-gradient-220" x1="689.66" y1="138.59" x2="719.08" y2="109.17" xlink:href="#linear-gradient"/><linearGradient id="linear-gradient-221" x1="28.91" y1="117.98" x2="58.33" y2="88.56" xlink:href="#linear-gradient"/><linearGradient id="linear-gradient-222" x1="98.46" y1="117.98" x2="127.88" y2="88.56" xlink:href="#linear-gradient"/><linearGradient id="linear-gradient-223" x1="168.01" y1="117.98" x2="197.43" y2="88.56" xlink:href="#linear-gradient"/><linearGradient id="linear-gradient-224" x1="237.57" y1="117.98" x2="266.99" y2="88.56" xlink:href="#linear-gradient"/><linearGradient id="linear-gradient-225" x1="307.12" y1="117.98" x2="336.54" y2="88.56" xlink:href="#linear-gradient"/><linearGradient id="linear-gradient-226" x1="376.67" y1="117.98" x2="406.09" y2="88.56" xlink:href="#linear-gradient"/><linearGradient id="linear-gradient-227" x1="446.23" y1="117.98" x2="475.65" y2="88.56" xlink:href="#linear-gradient"/><linearGradient id="linear-gradient-228" x1="515.78" y1="117.98" x2="545.2" y2="88.56" xlink:href="#linear-gradient"/><linearGradient id="linear-gradient-229" x1="585.33" y1="117.98" x2="614.75" y2="88.56" xlink:href="#linear-gradient"/><linearGradient id="linear-gradient-230" x1="654.89" y1="117.98" x2="684.31" y2="88.56" xlink:href="#linear-gradient"/><linearGradient id="linear-gradient-231" x1="724.44" y1="117.98" x2="753.86" y2="88.56" xlink:href="#linear-gradient"/><linearGradient id="linear-gradient-232" x1="-5.4" y1="97.84" x2="24.02" y2="68.42" xlink:href="#linear-gradient"/><linearGradient id="linear-gradient-233" x1="63.69" y1="97.36" x2="93.1" y2="67.95" xlink:href="#linear-gradient"/><linearGradient id="linear-gradient-234" x1="133.24" y1="97.36" x2="162.66" y2="67.95" xlink:href="#linear-gradient"/><linearGradient id="linear-gradient-235" x1="202.79" y1="97.36" x2="232.21" y2="67.95" xlink:href="#linear-gradient"/><linearGradient id="linear-gradient-236" x1="272.35" y1="97.36" x2="301.76" y2="67.95" xlink:href="#linear-gradient"/><linearGradient id="linear-gradient-237" x1="341.9" y1="97.36" x2="371.32" y2="67.95" xlink:href="#linear-gradient"/><linearGradient id="linear-gradient-238" x1="411.45" y1="97.36" x2="440.87" y2="67.95" xlink:href="#linear-gradient"/><linearGradient id="linear-gradient-239" x1="481" y1="97.36" x2="510.42" y2="67.95" xlink:href="#linear-gradient"/><linearGradient id="linear-gradient-240" x1="550.56" y1="97.36" x2="579.98" y2="67.95" xlink:href="#linear-gradient"/><linearGradient id="linear-gradient-241" x1="620.11" y1="97.36" x2="649.53" y2="67.95" xlink:href="#linear-gradient"/><linearGradient id="linear-gradient-242" x1="689.66" y1="97.36" x2="719.08" y2="67.95" xlink:href="#linear-gradient"/><linearGradient id="linear-gradient-243" x1="28.91" y1="76.75" x2="58.33" y2="47.34" xlink:href="#linear-gradient"/><linearGradient id="linear-gradient-244" x1="98.46" y1="76.75" x2="127.88" y2="47.34" xlink:href="#linear-gradient"/><linearGradient id="linear-gradient-245" x1="168.01" y1="76.75" x2="197.43" y2="47.34" xlink:href="#linear-gradient"/><linearGradient id="linear-gradient-246" x1="237.57" y1="76.75" x2="266.99" y2="47.34" xlink:href="#linear-gradient"/><linearGradient id="linear-gradient-247" x1="307.12" y1="76.75" x2="336.54" y2="47.34" xlink:href="#linear-gradient"/><linearGradient id="linear-gradient-248" x1="376.67" y1="76.75" x2="406.09" y2="47.34" xlink:href="#linear-gradient"/><linearGradient id="linear-gradient-249" x1="446.23" y1="76.75" x2="475.65" y2="47.34" xlink:href="#linear-gradient"/><linearGradient id="linear-gradient-250" x1="515.78" y1="76.75" x2="545.2" y2="47.34" xlink:href="#linear-gradient"/><linearGradient id="linear-gradient-251" x1="585.33" y1="76.75" x2="614.75" y2="47.34" xlink:href="#linear-gradient"/><linearGradient id="linear-gradient-252" x1="654.89" y1="76.75" x2="684.31" y2="47.34" xlink:href="#linear-gradient"/><linearGradient id="linear-gradient-253" x1="724.44" y1="76.75" x2="753.86" y2="47.34" xlink:href="#linear-gradient"/><linearGradient id="linear-gradient-254" x1="-5.4" y1="56.62" x2="24.02" y2="27.19" xlink:href="#linear-gradient"/><linearGradient id="linear-gradient-255" x1="63.69" y1="56.14" x2="93.1" y2="26.72" xlink:href="#linear-gradient"/><linearGradient id="linear-gradient-256" x1="133.24" y1="56.14" x2="162.66" y2="26.72" xlink:href="#linear-gradient"/><linearGradient id="linear-gradient-257" x1="202.79" y1="56.14" x2="232.21" y2="26.72" xlink:href="#linear-gradient"/><linearGradient id="linear-gradient-258" x1="272.35" y1="56.14" x2="301.76" y2="26.72" xlink:href="#linear-gradient"/><linearGradient id="linear-gradient-259" x1="341.9" y1="56.14" x2="371.32" y2="26.72" xlink:href="#linear-gradient"/><linearGradient id="linear-gradient-260" x1="411.45" y1="56.14" x2="440.87" y2="26.72" xlink:href="#linear-gradient"/><linearGradient id="linear-gradient-261" x1="481" y1="56.14" x2="510.42" y2="26.72" xlink:href="#linear-gradient"/><linearGradient id="linear-gradient-262" x1="550.56" y1="56.14" x2="579.98" y2="26.72" xlink:href="#linear-gradient"/><linearGradient id="linear-gradient-263" x1="620.11" y1="56.14" x2="649.53" y2="26.72" xlink:href="#linear-gradient"/><linearGradient id="linear-gradient-264" x1="689.66" y1="56.14" x2="719.08" y2="26.72" xlink:href="#linear-gradient"/><linearGradient id="linear-gradient-265" x1="28.91" y1="35.53" x2="58.33" y2="6.11" xlink:href="#linear-gradient"/><linearGradient id="linear-gradient-266" x1="98.46" y1="35.53" x2="127.88" y2="6.11" xlink:href="#linear-gradient"/><linearGradient id="linear-gradient-267" x1="168.01" y1="35.53" x2="197.43" y2="6.11" xlink:href="#linear-gradient"/><linearGradient id="linear-gradient-268" x1="237.57" y1="35.53" x2="266.99" y2="6.11" xlink:href="#linear-gradient"/><linearGradient id="linear-gradient-269" x1="307.12" y1="35.53" x2="336.54" y2="6.11" xlink:href="#linear-gradient"/><linearGradient id="linear-gradient-270" x1="376.67" y1="35.53" x2="406.09" y2="6.11" xlink:href="#linear-gradient"/><linearGradient id="linear-gradient-271" x1="446.23" y1="35.53" x2="475.65" y2="6.11" xlink:href="#linear-gradient"/><linearGradient id="linear-gradient-272" x1="515.78" y1="35.53" x2="545.2" y2="6.11" xlink:href="#linear-gradient"/><linearGradient id="linear-gradient-273" x1="585.33" y1="35.53" x2="614.75" y2="6.11" xlink:href="#linear-gradient"/><linearGradient id="linear-gradient-274" x1="654.89" y1="35.53" x2="684.31" y2="6.11" xlink:href="#linear-gradient"/><linearGradient id="linear-gradient-275" x1="724.44" y1="35.53" x2="753.86" y2="6.11" xlink:href="#linear-gradient"/><linearGradient id="linear-gradient-276" x1="-.78" y1="20.01" x2="28.59" y2="-9.35" xlink:href="#linear-gradient"/><linearGradient id="linear-gradient-277" x1="65.66" y1="16.89" x2="95.02" y2="-12.47" xlink:href="#linear-gradient"/><linearGradient id="linear-gradient-278" x1="135.21" y1="16.89" x2="164.57" y2="-12.47" xlink:href="#linear-gradient"/><linearGradient id="linear-gradient-279" x1="204.76" y1="16.89" x2="234.13" y2="-12.47" xlink:href="#linear-gradient"/><linearGradient id="linear-gradient-280" x1="274.32" y1="16.89" x2="303.68" y2="-12.47" xlink:href="#linear-gradient"/><linearGradient id="linear-gradient-281" x1="343.87" y1="16.89" x2="373.23" y2="-12.47" xlink:href="#linear-gradient"/><linearGradient id="linear-gradient-282" x1="413.42" y1="16.89" x2="442.79" y2="-12.47" xlink:href="#linear-gradient"/><linearGradient id="linear-gradient-283" x1="482.98" y1="16.89" x2="512.34" y2="-12.47" xlink:href="#linear-gradient"/><linearGradient id="linear-gradient-284" x1="552.53" y1="16.89" x2="581.89" y2="-12.47" xlink:href="#linear-gradient"/><linearGradient id="linear-gradient-285" x1="622.08" y1="16.89" x2="651.45" y2="-12.47" xlink:href="#linear-gradient"/><linearGradient id="linear-gradient-286" x1="691.64" y1="16.89" x2="721" y2="-12.47" xlink:href="#linear-gradient"/></defs><g class="cls-147"><g id="BACKGROUND"><rect class="cls-113" width="750" height="500"/><path class="cls-10" d="M750,0h-129.7c-88.08,41.49-149.12,131.53-149.12,235.94,0,143.78,115.73,260.34,258.48,260.34,6.84,0,13.62-.27,20.33-.8V0Z"/><path class="cls-8" d="M750,500V60.94c-4.52-.24-9.06-.36-13.64-.36-142.76,0-258.48,116.56-258.48,260.34,0,69.38,26.95,132.41,70.88,179.08h201.24Z"/><path class="cls-9" d="M240.04,0H0v370.05c1.87.04,3.74.07,5.62.07,142.76,0,258.48-116.56,258.48-260.34,0-39.23-8.63-76.42-24.06-109.78Z"/><path class="cls-5" d="M348.44,0H0v500h328.37c65.53-67.28,105.95-159.47,105.95-261.17,0-90.86-32.26-174.13-85.87-238.83Z"/><path class="cls-7" d="M152.65,0c-7.97,33.13-12.32,68.76-12.32,105.87,0,176.37,97.91,319.34,218.7,319.34s218.7-142.97,218.7-319.34c0-37.11-4.35-72.74-12.32-105.87H152.65Z"/><path class="cls-6" d="M316.24,500h222.17c64.41-55.57,107.61-157.96,107.61-275.11,0-87.72-24.23-167.17-63.44-224.89h-310.52c-39.21,57.72-63.44,137.17-63.44,224.89,0,117.15,43.21,219.54,107.61,275.11Z"/><path class="cls-11" d="M571.57,500c6.3-29.81,9.7-61.48,9.7-94.32,0-176.37-97.91-319.34-218.7-319.34s-218.7,142.97-218.7,319.34c0,32.83,3.4,64.51,9.7,94.32h418Z"/></g><g id="OBJECTS"><polygon class="cls-278" points="56.17 500 54.34 496.8 32.9 496.8 31.06 500 56.17 500"/><polygon class="cls-43" points="125.72 500 123.89 496.8 102.45 496.8 100.62 500 125.72 500"/><polygon class="cls-131" points="195.28 500 193.44 496.8 172.01 496.8 170.17 500 195.28 500"/><polygon class="cls-111" points="264.83 500 263 496.8 241.56 496.8 239.72 500 264.83 500"/><polygon class="cls-134" points="334.38 500 332.55 496.8 311.11 496.8 309.28 500 334.38 500"/><polygon class="cls-221" points="403.94 500 402.1 496.8 380.67 496.8 378.83 500 403.94 500"/><polygon class="cls-200" points="473.49 500 471.66 496.8 450.22 496.8 448.38 500 473.49 500"/><polygon class="cls-158" points="543.04 500 541.21 496.8 519.77 496.8 517.94 500 543.04 500"/><polygon class="cls-206" points="612.6 500 610.76 496.8 589.33 496.8 587.49 500 612.6 500"/><polygon class="cls-60" points="682.15 500 680.32 496.8 658.88 496.8 657.04 500 682.15 500"/><polygon class="cls-211" points="750 500 750 497.03 749.87 496.8 728.43 496.8 726.6 500 750 500"/><polygon class="cls-61" points="19.56 476.19 0 476.19 0 500 27.35 500 30.28 494.89 19.56 476.19"/><polygon class="cls-15" points="96.9 500 99.83 494.89 89.11 476.19 67.68 476.19 56.96 494.89 59.89 500 96.9 500"/><polygon class="cls-183" points="166.45 500 169.39 494.89 158.67 476.19 137.23 476.19 126.51 494.89 129.44 500 166.45 500"/><polygon class="cls-14" points="236.01 500 238.94 494.89 228.22 476.19 206.78 476.19 196.06 494.89 198.99 500 236.01 500"/><polygon class="cls-273" points="305.56 500 308.49 494.89 297.77 476.19 276.34 476.19 265.62 494.89 268.55 500 305.56 500"/><polygon class="cls-197" points="375.11 500 378.04 494.89 367.33 476.19 345.89 476.19 335.17 494.89 338.1 500 375.11 500"/><polygon class="cls-293" points="444.67 500 447.6 494.89 436.88 476.19 415.44 476.19 404.72 494.89 407.65 500 444.67 500"/><polygon class="cls-216" points="514.22 500 517.15 494.89 506.43 476.19 484.99 476.19 474.28 494.89 477.21 500 514.22 500"/><polygon class="cls-191" points="583.77 500 586.7 494.89 575.99 476.19 554.55 476.19 543.83 494.89 546.76 500 583.77 500"/><polygon class="cls-239" points="653.33 500 656.26 494.89 645.54 476.19 624.1 476.19 613.38 494.89 616.31 500 653.33 500"/><polygon class="cls-139" points="722.88 500 725.81 494.89 715.09 476.19 693.65 476.19 682.94 494.89 685.87 500 722.88 500"/><polygon class="cls-280" points="32.9 492.97 22.18 474.27 32.9 455.58 54.34 455.58 65.06 474.27 54.34 492.97 32.9 492.97"/><polygon class="cls-140" points="102.45 492.97 91.73 474.27 102.45 455.58 123.89 455.58 134.61 474.27 123.89 492.97 102.45 492.97"/><polygon class="cls-53" points="172.01 492.97 161.29 474.27 172.01 455.58 193.44 455.58 204.16 474.27 193.44 492.97 172.01 492.97"/><polygon class="cls-102" points="241.56 492.97 230.84 474.27 241.56 455.58 263 455.58 273.72 474.27 263 492.97 241.56 492.97"/><polygon class="cls-63" points="311.11 492.97 300.39 474.27 311.11 455.58 332.55 455.58 343.27 474.27 332.55 492.97 311.11 492.97"/><polygon class="cls-17" points="380.67 492.97 369.95 474.27 380.67 455.58 402.1 455.58 412.82 474.27 402.1 492.97 380.67 492.97"/><polygon class="cls-187" points="450.22 492.97 439.5 474.27 450.22 455.58 471.66 455.58 482.37 474.27 471.66 492.97 450.22 492.97"/><polygon class="cls-115" points="519.77 492.97 509.05 474.27 519.77 455.58 541.21 455.58 551.93 474.27 541.21 492.97 519.77 492.97"/><polygon class="cls-281" points="589.33 492.97 578.61 474.27 589.33 455.58 610.76 455.58 621.48 474.27 610.76 492.97 589.33 492.97"/><polygon class="cls-266" points="658.88 492.97 648.16 474.27 658.88 455.58 680.32 455.58 691.03 474.27 680.32 492.97 658.88 492.97"/><polygon class="cls-152" points="750 455.8 749.87 455.58 728.43 455.58 717.71 474.27 728.43 492.97 749.87 492.97 750 492.74 750 455.8"/><polygon class="cls-132" points="19.56 434.96 0 434.96 0 472.36 19.56 472.36 30.28 453.66 19.56 434.96"/><polygon class="cls-114" points="67.68 472.36 56.96 453.66 67.68 434.96 89.11 434.96 99.83 453.66 89.11 472.36 67.68 472.36"/><polygon class="cls-238" points="137.23 472.36 126.51 453.66 137.23 434.96 158.67 434.96 169.39 453.66 158.67 472.36 137.23 472.36"/><polygon class="cls-70" points="206.78 472.36 196.06 453.66 206.78 434.96 228.22 434.96 238.94 453.66 228.22 472.36 206.78 472.36"/><polygon class="cls-136" points="276.34 472.36 265.62 453.66 276.34 434.96 297.77 434.96 308.49 453.66 297.77 472.36 276.34 472.36"/><polygon class="cls-81" points="345.89 472.36 335.17 453.66 345.89 434.96 367.33 434.96 378.04 453.66 367.33 472.36 345.89 472.36"/><polygon class="cls-62" points="415.44 472.36 404.72 453.66 415.44 434.96 436.88 434.96 447.6 453.66 436.88 472.36 415.44 472.36"/><polygon class="cls-269" points="484.99 472.36 474.28 453.66 484.99 434.96 506.43 434.96 517.15 453.66 506.43 472.36 484.99 472.36"/><polygon class="cls-26" points="554.55 472.36 543.83 453.66 554.55 434.96 575.99 434.96 586.7 453.66 575.99 472.36 554.55 472.36"/><polygon class="cls-52" points="624.1 472.36 613.38 453.66 624.1 434.96 645.54 434.96 656.26 453.66 645.54 472.36 624.1 472.36"/><polygon class="cls-127" points="693.65 472.36 682.94 453.66 693.65 434.96 715.09 434.96 725.81 453.66 715.09 472.36 693.65 472.36"/><polygon class="cls-241" points="32.9 451.75 22.18 433.05 32.9 414.35 54.34 414.35 65.06 433.05 54.34 451.75 32.9 451.75"/><polygon class="cls-28" points="102.45 451.75 91.73 433.05 102.45 414.35 123.89 414.35 134.61 433.05 123.89 451.75 102.45 451.75"/><polygon class="cls-101" points="172.01 451.75 161.29 433.05 172.01 414.35 193.44 414.35 204.16 433.05 193.44 451.75 172.01 451.75"/><polygon class="cls-259" points="241.56 451.75 230.84 433.05 241.56 414.35 263 414.35 273.72 433.05 263 451.75 241.56 451.75"/><polygon class="cls-130" points="311.11 451.75 300.39 433.05 311.11 414.35 332.55 414.35 343.27 433.05 332.55 451.75 311.11 451.75"/><polygon class="cls-199" points="380.67 451.75 369.95 433.05 380.67 414.35 402.1 414.35 412.82 433.05 402.1 451.75 380.67 451.75"/><polygon class="cls-157" points="450.22 451.75 439.5 433.05 450.22 414.35 471.66 414.35 482.37 433.05 471.66 451.75 450.22 451.75"/><polygon class="cls-89" points="519.77 451.75 509.05 433.05 519.77 414.35 541.21 414.35 551.93 433.05 541.21 451.75 519.77 451.75"/><polygon class="cls-24" points="589.33 451.75 578.61 433.05 589.33 414.35 610.76 414.35 621.48 433.05 610.76 451.75 589.33 451.75"/><polygon class="cls-146" points="658.88 451.75 648.16 433.05 658.88 414.35 680.32 414.35 691.03 433.05 680.32 451.75 658.88 451.75"/><polygon class="cls-77" points="750 414.58 749.87 414.35 728.43 414.35 717.71 433.05 728.43 451.75 749.87 451.75 750 451.52 750 414.58"/><polygon class="cls-51" points="19.56 393.74 0 393.74 0 431.14 19.56 431.14 30.28 412.44 19.56 393.74"/><polygon class="cls-165" points="67.68 431.14 56.96 412.44 67.68 393.74 89.11 393.74 99.83 412.44 89.11 431.14 67.68 431.14"/><polygon class="cls-95" points="137.23 431.14 126.51 412.44 137.23 393.74 158.67 393.74 169.39 412.44 158.67 431.14 137.23 431.14"/><polygon class="cls-209" points="206.78 431.14 196.06 412.44 206.78 393.74 228.22 393.74 238.94 412.44 228.22 431.14 206.78 431.14"/><polygon class="cls-39" points="276.34 431.14 265.62 412.44 276.34 393.74 297.77 393.74 308.49 412.44 297.77 431.14 276.34 431.14"/><polygon class="cls-12" points="345.89 431.14 335.17 412.44 345.89 393.74 367.33 393.74 378.04 412.44 367.33 431.14 345.89 431.14"/><polygon class="cls-184" points="415.44 431.14 404.72 412.44 415.44 393.74 436.88 393.74 447.6 412.44 436.88 431.14 415.44 431.14"/><polygon class="cls-283" points="484.99 431.14 474.28 412.44 484.99 393.74 506.43 393.74 517.15 412.44 506.43 431.14 484.99 431.14"/><polygon class="cls-49" points="554.55 431.14 543.83 412.44 554.55 393.74 575.99 393.74 586.7 412.44 575.99 431.14 554.55 431.14"/><polygon class="cls-20" points="624.1 431.14 613.38 412.44 624.1 393.74 645.54 393.74 656.26 412.44 645.54 431.14 624.1 431.14"/><polygon class="cls-164" points="693.65 431.14 682.94 412.44 693.65 393.74 715.09 393.74 725.81 412.44 715.09 431.14 693.65 431.14"/><polygon class="cls-194" points="32.9 410.53 22.18 391.83 32.9 373.13 54.34 373.13 65.06 391.83 54.34 410.53 32.9 410.53"/><polygon class="cls-65" points="102.45 410.53 91.73 391.83 102.45 373.13 123.89 373.13 134.61 391.83 123.89 410.53 102.45 410.53"/><polygon class="cls-23" points="172.01 410.53 161.29 391.83 172.01 373.13 193.44 373.13 204.16 391.83 193.44 410.53 172.01 410.53"/><polygon class="cls-36" points="241.56 410.53 230.84 391.83 241.56 373.13 263 373.13 273.72 391.83 263 410.53 241.56 410.53"/><polygon class="cls-126" points="311.11 410.53 300.39 391.83 311.11 373.13 332.55 373.13 343.27 391.83 332.55 410.53 311.11 410.53"/><polygon class="cls-109" points="380.67 410.53 369.95 391.83 380.67 373.13 402.1 373.13 412.82 391.83 402.1 410.53 380.67 410.53"/><polygon class="cls-124" points="450.22 410.53 439.5 391.83 450.22 373.13 471.66 373.13 482.37 391.83 471.66 410.53 450.22 410.53"/><polygon class="cls-104" points="519.77 410.53 509.05 391.83 519.77 373.13 541.21 373.13 551.93 391.83 541.21 410.53 519.77 410.53"/><polygon class="cls-75" points="589.33 410.53 578.61 391.83 589.33 373.13 610.76 373.13 621.48 391.83 610.76 410.53 589.33 410.53"/><polygon class="cls-118" points="658.88 410.53 648.16 391.83 658.88 373.13 680.32 373.13 691.03 391.83 680.32 410.53 658.88 410.53"/><polygon class="cls-166" points="750 373.36 749.87 373.13 728.43 373.13 717.71 391.83 728.43 410.53 749.87 410.53 750 410.3 750 373.36"/><polygon class="cls-156" points="19.56 352.52 0 352.52 0 389.92 19.56 389.92 30.28 371.22 19.56 352.52"/><polygon class="cls-154" points="67.68 389.92 56.96 371.22 67.68 352.52 89.11 352.52 99.83 371.22 89.11 389.92 67.68 389.92"/><polygon class="cls-218" points="137.23 389.92 126.51 371.22 137.23 352.52 158.67 352.52 169.39 371.22 158.67 389.92 137.23 389.92"/><polygon class="cls-249" points="206.78 389.92 196.06 371.22 206.78 352.52 228.22 352.52 238.94 371.22 228.22 389.92 206.78 389.92"/><polygon class="cls-54" points="276.34 389.92 265.62 371.22 276.34 352.52 297.77 352.52 308.49 371.22 297.77 389.92 276.34 389.92"/><polygon class="cls-224" points="345.89 389.92 335.17 371.22 345.89 352.52 367.33 352.52 378.04 371.22 367.33 389.92 345.89 389.92"/><polygon class="cls-252" points="415.44 389.92 404.72 371.22 415.44 352.52 436.88 352.52 447.6 371.22 436.88 389.92 415.44 389.92"/><polygon class="cls-247" points="484.99 389.92 474.28 371.22 484.99 352.52 506.43 352.52 517.15 371.22 506.43 389.92 484.99 389.92"/><polygon class="cls-267" points="554.55 389.92 543.83 371.22 554.55 352.52 575.99 352.52 586.7 371.22 575.99 389.92 554.55 389.92"/><polygon class="cls-46" points="624.1 389.92 613.38 371.22 624.1 352.52 645.54 352.52 656.26 371.22 645.54 389.92 624.1 389.92"/><polygon class="cls-176" points="693.65 389.92 682.94 371.22 693.65 352.52 715.09 352.52 725.81 371.22 715.09 389.92 693.65 389.92"/><polygon class="cls-86" points="32.9 369.3 22.18 350.61 32.9 331.91 54.34 331.91 65.06 350.61 54.34 369.3 32.9 369.3"/><polygon class="cls-151" points="102.45 369.3 91.73 350.61 102.45 331.91 123.89 331.91 134.61 350.61 123.89 369.3 102.45 369.3"/><polygon class="cls-137" points="172.01 369.3 161.29 350.61 172.01 331.91 193.44 331.91 204.16 350.61 193.44 369.3 172.01 369.3"/><polygon class="cls-150" points="241.56 369.3 230.84 350.61 241.56 331.91 263 331.91 273.72 350.61 263 369.3 241.56 369.3"/><polygon class="cls-41" points="311.11 369.3 300.39 350.61 311.11 331.91 332.55 331.91 343.27 350.61 332.55 369.3 311.11 369.3"/><polygon class="cls-143" points="380.67 369.3 369.95 350.61 380.67 331.91 402.1 331.91 412.82 350.61 402.1 369.3 380.67 369.3"/><polygon class="cls-42" points="450.22 369.3 439.5 350.61 450.22 331.91 471.66 331.91 482.37 350.61 471.66 369.3 450.22 369.3"/><polygon class="cls-129" points="519.77 369.3 509.05 350.61 519.77 331.91 541.21 331.91 551.93 350.61 541.21 369.3 519.77 369.3"/><polygon class="cls-108" points="589.33 369.3 578.61 350.61 589.33 331.91 610.76 331.91 621.48 350.61 610.76 369.3 589.33 369.3"/><polygon class="cls-248" points="658.88 369.3 648.16 350.61 658.88 331.91 680.32 331.91 691.03 350.61 680.32 369.3 658.88 369.3"/><polygon class="cls-291" points="750 332.13 749.87 331.91 728.43 331.91 717.71 350.61 728.43 369.3 749.87 369.3 750 369.08 750 332.13"/><polygon class="cls-44" points="19.56 311.29 0 311.29 0 348.69 19.56 348.69 30.28 329.99 19.56 311.29"/><polygon class="cls-217" points="67.68 348.69 56.96 329.99 67.68 311.29 89.11 311.29 99.83 329.99 89.11 348.69 67.68 348.69"/><polygon class="cls-264" points="137.23 348.69 126.51 329.99 137.23 311.29 158.67 311.29 169.39 329.99 158.67 348.69 137.23 348.69"/><polygon class="cls-171" points="206.78 348.69 196.06 329.99 206.78 311.29 228.22 311.29 238.94 329.99 228.22 348.69 206.78 348.69"/><polygon class="cls-208" points="276.34 348.69 265.62 329.99 276.34 311.29 297.77 311.29 308.49 329.99 297.77 348.69 276.34 348.69"/><polygon class="cls-232" points="345.89 348.69 335.17 329.99 345.89 311.29 367.33 311.29 378.04 329.99 367.33 348.69 345.89 348.69"/><polygon class="cls-192" points="415.44 348.69 404.72 329.99 415.44 311.29 436.88 311.29 447.6 329.99 436.88 348.69 415.44 348.69"/><polygon class="cls-16" points="484.99 348.69 474.28 329.99 484.99 311.29 506.43 311.29 517.15 329.99 506.43 348.69 484.99 348.69"/><polygon class="cls-215" points="554.55 348.69 543.83 329.99 554.55 311.29 575.99 311.29 586.7 329.99 575.99 348.69 554.55 348.69"/><polygon class="cls-123" points="624.1 348.69 613.38 329.99 624.1 311.29 645.54 311.29 656.26 329.99 645.54 348.69 624.1 348.69"/><polygon class="cls-175" points="693.65 348.69 682.94 329.99 693.65 311.29 715.09 311.29 725.81 329.99 715.09 348.69 693.65 348.69"/><polygon class="cls-275" points="32.9 328.08 22.18 309.38 32.9 290.68 54.34 290.68 65.06 309.38 54.34 328.08 32.9 328.08"/><polygon class="cls-225" points="102.45 328.08 91.73 309.38 102.45 290.68 123.89 290.68 134.61 309.38 123.89 328.08 102.45 328.08"/><polygon class="cls-91" points="172.01 328.08 161.29 309.38 172.01 290.68 193.44 290.68 204.16 309.38 193.44 328.08 172.01 328.08"/><polygon class="cls-253" points="241.56 328.08 230.84 309.38 241.56 290.68 263 290.68 273.72 309.38 263 328.08 241.56 328.08"/><polygon class="cls-285" points="311.11 328.08 300.39 309.38 311.11 290.68 332.55 290.68 343.27 309.38 332.55 328.08 311.11 328.08"/><polygon class="cls-78" points="380.67 328.08 369.95 309.38 380.67 290.68 402.1 290.68 412.82 309.38 402.1 328.08 380.67 328.08"/><polygon class="cls-258" points="450.22 328.08 439.5 309.38 450.22 290.68 471.66 290.68 482.37 309.38 471.66 328.08 450.22 328.08"/><polygon class="cls-3" points="519.77 328.08 509.05 309.38 519.77 290.68 541.21 290.68 551.93 309.38 541.21 328.08 519.77 328.08"/><polygon class="cls-240" points="589.33 328.08 578.61 309.38 589.33 290.68 610.76 290.68 621.48 309.38 610.76 328.08 589.33 328.08"/><polygon class="cls-213" points="658.88 328.08 648.16 309.38 658.88 290.68 680.32 290.68 691.03 309.38 680.32 328.08 658.88 328.08"/><polygon class="cls-173" points="750 290.91 749.87 290.68 728.43 290.68 717.71 309.38 728.43 328.08 749.87 328.08 750 327.85 750 290.91"/><polygon class="cls-93" points="19.56 270.07 0 270.07 0 307.47 19.56 307.47 30.28 288.77 19.56 270.07"/><polygon class="cls-294" points="67.68 307.47 56.96 288.77 67.68 270.07 89.11 270.07 99.83 288.77 89.11 307.47 67.68 307.47"/><polygon class="cls-179" points="137.23 307.47 126.51 288.77 137.23 270.07 158.67 270.07 169.39 288.77 158.67 307.47 137.23 307.47"/><polygon class="cls-116" points="206.78 307.47 196.06 288.77 206.78 270.07 228.22 270.07 238.94 288.77 228.22 307.47 206.78 307.47"/><polygon class="cls-288" points="276.34 307.47 265.62 288.77 276.34 270.07 297.77 270.07 308.49 288.77 297.77 307.47 276.34 307.47"/><polygon class="cls-245" points="345.89 307.47 335.17 288.77 345.89 270.07 367.33 270.07 378.04 288.77 367.33 307.47 345.89 307.47"/><polygon class="cls-181" points="415.44 307.47 404.72 288.77 415.44 270.07 436.88 270.07 447.6 288.77 436.88 307.47 415.44 307.47"/><polygon class="cls-168" points="484.99 307.47 474.28 288.77 484.99 270.07 506.43 270.07 517.15 288.77 506.43 307.47 484.99 307.47"/><polygon class="cls-270" points="554.55 307.47 543.83 288.77 554.55 270.07 575.99 270.07 586.7 288.77 575.99 307.47 554.55 307.47"/><polygon class="cls-167" points="624.1 307.47 613.38 288.77 624.1 270.07 645.54 270.07 656.26 288.77 645.54 307.47 624.1 307.47"/><polygon class="cls-2" points="693.65 307.47 682.94 288.77 693.65 270.07 715.09 270.07 725.81 288.77 715.09 307.47 693.65 307.47"/><polygon class="cls-141" points="32.9 286.86 22.18 268.16 32.9 249.46 54.34 249.46 65.06 268.16 54.34 286.86 32.9 286.86"/><polygon class="cls-204" points="102.45 286.86 91.73 268.16 102.45 249.46 123.89 249.46 134.61 268.16 123.89 286.86 102.45 286.86"/><polygon class="cls-172" points="172.01 286.86 161.29 268.16 172.01 249.46 193.44 249.46 204.16 268.16 193.44 286.86 172.01 286.86"/><polygon class="cls-13" points="241.56 286.86 230.84 268.16 241.56 249.46 263 249.46 273.72 268.16 263 286.86 241.56 286.86"/><polygon class="cls-235" points="311.11 286.86 300.39 268.16 311.11 249.46 332.55 249.46 343.27 268.16 332.55 286.86 311.11 286.86"/><polygon class="cls-58" points="380.67 286.86 369.95 268.16 380.67 249.46 402.1 249.46 412.82 268.16 402.1 286.86 380.67 286.86"/><polygon class="cls-195" points="450.22 286.86 439.5 268.16 450.22 249.46 471.66 249.46 482.37 268.16 471.66 286.86 450.22 286.86"/><polygon class="cls-254" points="519.77 286.86 509.05 268.16 519.77 249.46 541.21 249.46 551.93 268.16 541.21 286.86 519.77 286.86"/><polygon class="cls-198" points="589.33 286.86 578.61 268.16 589.33 249.46 610.76 249.46 621.48 268.16 610.76 286.86 589.33 286.86"/><polygon class="cls-34" points="658.88 286.86 648.16 268.16 658.88 249.46 680.32 249.46 691.03 268.16 680.32 286.86 658.88 286.86"/><polygon class="cls-121" points="750 249.69 749.87 249.46 728.43 249.46 717.71 268.16 728.43 286.86 749.87 286.86 750 286.63 750 249.69"/><polygon class="cls-128" points="19.56 228.85 0 228.85 0 266.25 19.56 266.25 30.28 247.55 19.56 228.85"/><polygon class="cls-22" points="67.68 266.25 56.96 247.55 67.68 228.85 89.11 228.85 99.83 247.55 89.11 266.25 67.68 266.25"/><polygon class="cls-107" points="137.23 266.25 126.51 247.55 137.23 228.85 158.67 228.85 169.39 247.55 158.67 266.25 137.23 266.25"/><polygon class="cls-148" points="206.78 266.25 196.06 247.55 206.78 228.85 228.22 228.85 238.94 247.55 228.22 266.25 206.78 266.25"/><polygon class="cls-196" points="276.34 266.25 265.62 247.55 276.34 228.85 297.77 228.85 308.49 247.55 297.77 266.25 276.34 266.25"/><polygon class="cls-138" points="345.89 266.25 335.17 247.55 345.89 228.85 367.33 228.85 378.04 247.55 367.33 266.25 345.89 266.25"/><polygon class="cls-45" points="415.44 266.25 404.72 247.55 415.44 228.85 436.88 228.85 447.6 247.55 436.88 266.25 415.44 266.25"/><polygon class="cls-250" points="484.99 266.25 474.28 247.55 484.99 228.85 506.43 228.85 517.15 247.55 506.43 266.25 484.99 266.25"/><polygon class="cls-100" points="554.55 266.25 543.83 247.55 554.55 228.85 575.99 228.85 586.7 247.55 575.99 266.25 554.55 266.25"/><polygon class="cls-257" points="624.1 266.25 613.38 247.55 624.1 228.85 645.54 228.85 656.26 247.55 645.54 266.25 624.1 266.25"/><polygon class="cls-226" points="693.65 266.25 682.94 247.55 693.65 228.85 715.09 228.85 725.81 247.55 715.09 266.25 693.65 266.25"/><polygon class="cls-32" points="32.9 245.64 22.18 226.94 32.9 208.24 54.34 208.24 65.06 226.94 54.34 245.64 32.9 245.64"/><polygon class="cls-185" points="102.45 245.64 91.73 226.94 102.45 208.24 123.89 208.24 134.61 226.94 123.89 245.64 102.45 245.64"/><polygon class="cls-110" points="172.01 245.64 161.29 226.94 172.01 208.24 193.44 208.24 204.16 226.94 193.44 245.64 172.01 245.64"/><polygon class="cls-18" points="241.56 245.64 230.84 226.94 241.56 208.24 263 208.24 273.72 226.94 263 245.64 241.56 245.64"/><polygon class="cls-71" points="311.11 245.64 300.39 226.94 311.11 208.24 332.55 208.24 343.27 226.94 332.55 245.64 311.11 245.64"/><polygon class="cls-82" points="380.67 245.64 369.95 226.94 380.67 208.24 402.1 208.24 412.82 226.94 402.1 245.64 380.67 245.64"/><polygon class="cls-117" points="450.22 245.64 439.5 226.94 450.22 208.24 471.66 208.24 482.37 226.94 471.66 245.64 450.22 245.64"/><polygon class="cls-4" points="519.77 245.64 509.05 226.94 519.77 208.24 541.21 208.24 551.93 226.94 541.21 245.64 519.77 245.64"/><polygon class="cls-48" points="589.33 245.64 578.61 226.94 589.33 208.24 610.76 208.24 621.48 226.94 610.76 245.64 589.33 245.64"/><polygon class="cls-182" points="658.88 245.64 648.16 226.94 658.88 208.24 680.32 208.24 691.03 226.94 680.32 245.64 658.88 245.64"/><polygon class="cls-180" points="750 208.47 749.87 208.24 728.43 208.24 717.71 226.94 728.43 245.64 749.87 245.64 750 245.41 750 208.47"/><polygon class="cls-94" points="19.56 187.63 0 187.63 0 225.02 19.56 225.02 30.28 206.32 19.56 187.63"/><polygon class="cls-237" points="67.68 225.02 56.96 206.32 67.68 187.63 89.11 187.63 99.83 206.32 89.11 225.02 67.68 225.02"/><polygon class="cls-169" points="137.23 225.02 126.51 206.32 137.23 187.63 158.67 187.63 169.39 206.32 158.67 225.02 137.23 225.02"/><polygon class="cls-214" points="206.78 225.02 196.06 206.32 206.78 187.63 228.22 187.63 238.94 206.32 228.22 225.02 206.78 225.02"/><polygon class="cls-174" points="276.34 225.02 265.62 206.32 276.34 187.63 297.77 187.63 308.49 206.32 297.77 225.02 276.34 225.02"/><polygon class="cls-98" points="345.89 225.02 335.17 206.32 345.89 187.63 367.33 187.63 378.04 206.32 367.33 225.02 345.89 225.02"/><polygon class="cls-68" points="415.44 225.02 404.72 206.32 415.44 187.63 436.88 187.63 447.6 206.32 436.88 225.02 415.44 225.02"/><polygon class="cls-50" points="484.99 225.02 474.28 206.32 484.99 187.63 506.43 187.63 517.15 206.32 506.43 225.02 484.99 225.02"/><polygon class="cls-64" points="554.55 225.02 543.83 206.32 554.55 187.63 575.99 187.63 586.7 206.32 575.99 225.02 554.55 225.02"/><polygon class="cls-97" points="624.1 225.02 613.38 206.32 624.1 187.63 645.54 187.63 656.26 206.32 645.54 225.02 624.1 225.02"/><polygon class="cls-85" points="693.65 225.02 682.94 206.32 693.65 187.63 715.09 187.63 725.81 206.32 715.09 225.02 693.65 225.02"/><polygon class="cls-189" points="32.9 204.41 22.18 185.71 32.9 167.01 54.34 167.01 65.06 185.71 54.34 204.41 32.9 204.41"/><polygon class="cls-246" points="102.45 204.41 91.73 185.71 102.45 167.01 123.89 167.01 134.61 185.71 123.89 204.41 102.45 204.41"/><polygon class="cls-233" points="172.01 204.41 161.29 185.71 172.01 167.01 193.44 167.01 204.16 185.71 193.44 204.41 172.01 204.41"/><polygon class="cls-243" points="241.56 204.41 230.84 185.71 241.56 167.01 263 167.01 273.72 185.71 263 204.41 241.56 204.41"/><polygon class="cls-106" points="311.11 204.41 300.39 185.71 311.11 167.01 332.55 167.01 343.27 185.71 332.55 204.41 311.11 204.41"/><polygon class="cls-30" points="380.67 204.41 369.95 185.71 380.67 167.01 402.1 167.01 412.82 185.71 402.1 204.41 380.67 204.41"/><polygon class="cls-219" points="450.22 204.41 439.5 185.71 450.22 167.01 471.66 167.01 482.37 185.71 471.66 204.41 450.22 204.41"/><polygon class="cls-212" points="519.77 204.41 509.05 185.71 519.77 167.01 541.21 167.01 551.93 185.71 541.21 204.41 519.77 204.41"/><polygon class="cls-201" points="589.33 204.41 578.61 185.71 589.33 167.01 610.76 167.01 621.48 185.71 610.76 204.41 589.33 204.41"/><polygon class="cls-290" points="658.88 204.41 648.16 185.71 658.88 167.01 680.32 167.01 691.03 185.71 680.32 204.41 658.88 204.41"/><polygon class="cls-277" points="750 167.24 749.87 167.01 728.43 167.01 717.71 185.71 728.43 204.41 749.87 204.41 750 204.18 750 167.24"/><polygon class="cls-74" points="19.56 146.4 0 146.4 0 183.8 19.56 183.8 30.28 165.1 19.56 146.4"/><polygon class="cls-177" points="67.68 183.8 56.96 165.1 67.68 146.4 89.11 146.4 99.83 165.1 89.11 183.8 67.68 183.8"/><polygon class="cls-35" points="137.23 183.8 126.51 165.1 137.23 146.4 158.67 146.4 169.39 165.1 158.67 183.8 137.23 183.8"/><polygon class="cls-96" points="206.78 183.8 196.06 165.1 206.78 146.4 228.22 146.4 238.94 165.1 228.22 183.8 206.78 183.8"/><polygon class="cls-84" points="276.34 183.8 265.62 165.1 276.34 146.4 297.77 146.4 308.49 165.1 297.77 183.8 276.34 183.8"/><polygon class="cls-279" points="345.89 183.8 335.17 165.1 345.89 146.4 367.33 146.4 378.04 165.1 367.33 183.8 345.89 183.8"/><polygon class="cls-153" points="415.44 183.8 404.72 165.1 415.44 146.4 436.88 146.4 447.6 165.1 436.88 183.8 415.44 183.8"/><polygon class="cls-276" points="484.99 183.8 474.28 165.1 484.99 146.4 506.43 146.4 517.15 165.1 506.43 183.8 484.99 183.8"/><polygon class="cls-69" points="554.55 183.8 543.83 165.1 554.55 146.4 575.99 146.4 586.7 165.1 575.99 183.8 554.55 183.8"/><polygon class="cls-271" points="624.1 183.8 613.38 165.1 624.1 146.4 645.54 146.4 656.26 165.1 645.54 183.8 624.1 183.8"/><polygon class="cls-56" points="693.65 183.8 682.94 165.1 693.65 146.4 715.09 146.4 725.81 165.1 715.09 183.8 693.65 183.8"/><polygon class="cls-27" points="32.9 163.19 22.18 144.49 32.9 125.79 54.34 125.79 65.06 144.49 54.34 163.19 32.9 163.19"/><polygon class="cls-228" points="102.45 163.19 91.73 144.49 102.45 125.79 123.89 125.79 134.61 144.49 123.89 163.19 102.45 163.19"/><polygon class="cls-21" points="172.01 163.19 161.29 144.49 172.01 125.79 193.44 125.79 204.16 144.49 193.44 163.19 172.01 163.19"/><polygon class="cls-66" points="241.56 163.19 230.84 144.49 241.56 125.79 263 125.79 273.72 144.49 263 163.19 241.56 163.19"/><polygon class="cls-227" points="311.11 163.19 300.39 144.49 311.11 125.79 332.55 125.79 343.27 144.49 332.55 163.19 311.11 163.19"/><polygon class="cls-263" points="380.67 163.19 369.95 144.49 380.67 125.79 402.1 125.79 412.82 144.49 402.1 163.19 380.67 163.19"/><polygon class="cls-37" points="450.22 163.19 439.5 144.49 450.22 125.79 471.66 125.79 482.37 144.49 471.66 163.19 450.22 163.19"/><polygon class="cls-229" points="519.77 163.19 509.05 144.49 519.77 125.79 541.21 125.79 551.93 144.49 541.21 163.19 519.77 163.19"/><polygon class="cls-261" points="589.33 163.19 578.61 144.49 589.33 125.79 610.76 125.79 621.48 144.49 610.76 163.19 589.33 163.19"/><polygon class="cls-274" points="658.88 163.19 648.16 144.49 658.88 125.79 680.32 125.79 691.03 144.49 680.32 163.19 658.88 163.19"/><polygon class="cls-40" points="750 126.02 749.87 125.79 728.43 125.79 717.71 144.49 728.43 163.19 749.87 163.19 750 162.96 750 126.02"/><polygon class="cls-255" points="19.56 105.18 0 105.18 0 142.58 19.56 142.58 30.28 123.88 19.56 105.18"/><polygon class="cls-59" points="67.68 142.58 56.96 123.88 67.68 105.18 89.11 105.18 99.83 123.88 89.11 142.58 67.68 142.58"/><polygon class="cls-262" points="137.23 142.58 126.51 123.88 137.23 105.18 158.67 105.18 169.39 123.88 158.67 142.58 137.23 142.58"/><polygon class="cls-256" points="206.78 142.58 196.06 123.88 206.78 105.18 228.22 105.18 238.94 123.88 228.22 142.58 206.78 142.58"/><polygon class="cls-242" points="276.34 142.58 265.62 123.88 276.34 105.18 297.77 105.18 308.49 123.88 297.77 142.58 276.34 142.58"/><polygon class="cls-90" points="345.89 142.58 335.17 123.88 345.89 105.18 367.33 105.18 378.04 123.88 367.33 142.58 345.89 142.58"/><polygon class="cls-202" points="415.44 142.58 404.72 123.88 415.44 105.18 436.88 105.18 447.6 123.88 436.88 142.58 415.44 142.58"/><polygon class="cls-103" points="484.99 142.58 474.28 123.88 484.99 105.18 506.43 105.18 517.15 123.88 506.43 142.58 484.99 142.58"/><polygon class="cls-282" points="554.55 142.58 543.83 123.88 554.55 105.18 575.99 105.18 586.7 123.88 575.99 142.58 554.55 142.58"/><polygon class="cls-284" points="624.1 142.58 613.38 123.88 624.1 105.18 645.54 105.18 656.26 123.88 645.54 142.58 624.1 142.58"/><polygon class="cls-88" points="693.65 142.58 682.94 123.88 693.65 105.18 715.09 105.18 725.81 123.88 715.09 142.58 693.65 142.58"/><polygon class="cls-149" points="32.9 121.97 22.18 103.27 32.9 84.57 54.34 84.57 65.06 103.27 54.34 121.97 32.9 121.97"/><polygon class="cls-25" points="102.45 121.97 91.73 103.27 102.45 84.57 123.89 84.57 134.61 103.27 123.89 121.97 102.45 121.97"/><polygon class="cls-47" points="172.01 121.97 161.29 103.27 172.01 84.57 193.44 84.57 204.16 103.27 193.44 121.97 172.01 121.97"/><polygon class="cls-295" points="241.56 121.97 230.84 103.27 241.56 84.57 263 84.57 273.72 103.27 263 121.97 241.56 121.97"/><polygon class="cls-135" points="311.11 121.97 300.39 103.27 311.11 84.57 332.55 84.57 343.27 103.27 332.55 121.97 311.11 121.97"/><polygon class="cls-142" points="380.67 121.97 369.95 103.27 380.67 84.57 402.1 84.57 412.82 103.27 402.1 121.97 380.67 121.97"/><polygon class="cls-190" points="450.22 121.97 439.5 103.27 450.22 84.57 471.66 84.57 482.37 103.27 471.66 121.97 450.22 121.97"/><polygon class="cls-178" points="519.77 121.97 509.05 103.27 519.77 84.57 541.21 84.57 551.93 103.27 541.21 121.97 519.77 121.97"/><polygon class="cls-162" points="589.33 121.97 578.61 103.27 589.33 84.57 610.76 84.57 621.48 103.27 610.76 121.97 589.33 121.97"/><polygon class="cls-19" points="658.88 121.97 648.16 103.27 658.88 84.57 680.32 84.57 691.03 103.27 680.32 121.97 658.88 121.97"/><polygon class="cls-57" points="750 84.8 749.87 84.57 728.43 84.57 717.71 103.27 728.43 121.97 749.87 121.97 750 121.74 750 84.8"/><polygon class="cls-79" points="19.56 63.96 0 63.96 0 101.35 19.56 101.35 30.28 82.66 19.56 63.96"/><polygon class="cls-145" points="67.68 101.35 56.96 82.66 67.68 63.96 89.11 63.96 99.83 82.66 89.11 101.35 67.68 101.35"/><polygon class="cls-163" points="137.23 101.35 126.51 82.66 137.23 63.96 158.67 63.96 169.39 82.66 158.67 101.35 137.23 101.35"/><polygon class="cls-122" points="206.78 101.35 196.06 82.66 206.78 63.96 228.22 63.96 238.94 82.66 228.22 101.35 206.78 101.35"/><polygon class="cls-207" points="276.34 101.35 265.62 82.66 276.34 63.96 297.77 63.96 308.49 82.66 297.77 101.35 276.34 101.35"/><polygon class="cls-244" points="345.89 101.35 335.17 82.66 345.89 63.96 367.33 63.96 378.04 82.66 367.33 101.35 345.89 101.35"/><polygon class="cls-112" points="415.44 101.35 404.72 82.66 415.44 63.96 436.88 63.96 447.6 82.66 436.88 101.35 415.44 101.35"/><polygon class="cls-55" points="484.99 101.35 474.28 82.66 484.99 63.96 506.43 63.96 517.15 82.66 506.43 101.35 484.99 101.35"/><polygon class="cls-120" points="554.55 101.35 543.83 82.66 554.55 63.96 575.99 63.96 586.7 82.66 575.99 101.35 554.55 101.35"/><polygon class="cls-1" points="624.1 101.35 613.38 82.66 624.1 63.96 645.54 63.96 656.26 82.66 645.54 101.35 624.1 101.35"/><polygon class="cls-99" points="693.65 101.35 682.94 82.66 693.65 63.96 715.09 63.96 725.81 82.66 715.09 101.35 693.65 101.35"/><polygon class="cls-234" points="32.9 80.74 22.18 62.04 32.9 43.35 54.34 43.35 65.06 62.04 54.34 80.74 32.9 80.74"/><polygon class="cls-220" points="102.45 80.74 91.73 62.04 102.45 43.35 123.89 43.35 134.61 62.04 123.89 80.74 102.45 80.74"/><polygon class="cls-193" points="172.01 80.74 161.29 62.04 172.01 43.35 193.44 43.35 204.16 62.04 193.44 80.74 172.01 80.74"/><polygon class="cls-268" points="241.56 80.74 230.84 62.04 241.56 43.35 263 43.35 273.72 62.04 263 80.74 241.56 80.74"/><polygon class="cls-159" points="311.11 80.74 300.39 62.04 311.11 43.35 332.55 43.35 343.27 62.04 332.55 80.74 311.11 80.74"/><polygon class="cls-72" points="380.67 80.74 369.95 62.04 380.67 43.35 402.1 43.35 412.82 62.04 402.1 80.74 380.67 80.74"/><polygon class="cls-155" points="450.22 80.74 439.5 62.04 450.22 43.35 471.66 43.35 482.37 62.04 471.66 80.74 450.22 80.74"/><polygon class="cls-292" points="519.77 80.74 509.05 62.04 519.77 43.35 541.21 43.35 551.93 62.04 541.21 80.74 519.77 80.74"/><polygon class="cls-38" points="589.33 80.74 578.61 62.04 589.33 43.35 610.76 43.35 621.48 62.04 610.76 80.74 589.33 80.74"/><polygon class="cls-125" points="658.88 80.74 648.16 62.04 658.88 43.35 680.32 43.35 691.03 62.04 680.32 80.74 658.88 80.74"/><polygon class="cls-205" points="750 43.57 749.87 43.35 728.43 43.35 717.71 62.04 728.43 80.74 749.87 80.74 750 80.51 750 43.57"/><polygon class="cls-92" points="19.56 22.73 0 22.73 0 60.13 19.56 60.13 30.28 41.43 19.56 22.73"/><polygon class="cls-251" points="67.68 60.13 56.96 41.43 67.68 22.73 89.11 22.73 99.83 41.43 89.11 60.13 67.68 60.13"/><polygon class="cls-33" points="137.23 60.13 126.51 41.43 137.23 22.73 158.67 22.73 169.39 41.43 158.67 60.13 137.23 60.13"/><polygon class="cls-105" points="206.78 60.13 196.06 41.43 206.78 22.73 228.22 22.73 238.94 41.43 228.22 60.13 206.78 60.13"/><polygon class="cls-223" points="276.34 60.13 265.62 41.43 276.34 22.73 297.77 22.73 308.49 41.43 297.77 60.13 276.34 60.13"/><polygon class="cls-287" points="345.89 60.13 335.17 41.43 345.89 22.73 367.33 22.73 378.04 41.43 367.33 60.13 345.89 60.13"/><polygon class="cls-119" points="415.44 60.13 404.72 41.43 415.44 22.73 436.88 22.73 447.6 41.43 436.88 60.13 415.44 60.13"/><polygon class="cls-144" points="484.99 60.13 474.28 41.43 484.99 22.73 506.43 22.73 517.15 41.43 506.43 60.13 484.99 60.13"/><polygon class="cls-87" points="554.55 60.13 543.83 41.43 554.55 22.73 575.99 22.73 586.7 41.43 575.99 60.13 554.55 60.13"/><polygon class="cls-230" points="624.1 60.13 613.38 41.43 624.1 22.73 645.54 22.73 656.26 41.43 645.54 60.13 624.1 60.13"/><polygon class="cls-31" points="693.65 60.13 682.94 41.43 693.65 22.73 715.09 22.73 725.81 41.43 715.09 60.13 693.65 60.13"/><polygon class="cls-186" points="32.9 39.52 22.18 20.82 32.9 2.12 54.34 2.12 65.06 20.82 54.34 39.52 32.9 39.52"/><polygon class="cls-260" points="102.45 39.52 91.73 20.82 102.45 2.12 123.89 2.12 134.61 20.82 123.89 39.52 102.45 39.52"/><polygon class="cls-67" points="172.01 39.52 161.29 20.82 172.01 2.12 193.44 2.12 204.16 20.82 193.44 39.52 172.01 39.52"/><polygon class="cls-161" points="241.56 39.52 230.84 20.82 241.56 2.12 263 2.12 273.72 20.82 263 39.52 241.56 39.52"/><polygon class="cls-203" points="311.11 39.52 300.39 20.82 311.11 2.12 332.55 2.12 343.27 20.82 332.55 39.52 311.11 39.52"/><polygon class="cls-133" points="380.67 39.52 369.95 20.82 380.67 2.12 402.1 2.12 412.82 20.82 402.1 39.52 380.67 39.52"/><polygon class="cls-83" points="450.22 39.52 439.5 20.82 450.22 2.12 471.66 2.12 482.37 20.82 471.66 39.52 450.22 39.52"/><polygon class="cls-160" points="519.77 39.52 509.05 20.82 519.77 2.12 541.21 2.12 551.93 20.82 541.21 39.52 519.77 39.52"/><polygon class="cls-29" points="589.33 39.52 578.61 20.82 589.33 2.12 610.76 2.12 621.48 20.82 610.76 39.52 589.33 39.52"/><polygon class="cls-76" points="658.88 39.52 648.16 20.82 658.88 2.12 680.32 2.12 691.03 20.82 680.32 39.52 658.88 39.52"/><polygon class="cls-286" points="750 2.35 749.87 2.12 728.43 2.12 717.71 20.82 728.43 39.52 749.87 39.52 750 39.29 750 2.35"/><polygon class="cls-170" points="30.16 0 0 0 0 18.91 19.56 18.91 30.28 .21 30.16 0"/><polygon class="cls-73" points="57.08 0 56.96 .21 67.68 18.91 89.11 18.91 99.83 .21 99.71 0 57.08 0"/><polygon class="cls-231" points="126.63 0 126.51 .21 137.23 18.91 158.67 18.91 169.39 .21 169.26 0 126.63 0"/><polygon class="cls-272" points="196.18 0 196.06 .21 206.78 18.91 228.22 18.91 238.94 .21 238.82 0 196.18 0"/><polygon class="cls-80" points="265.74 0 265.62 .21 276.34 18.91 297.77 18.91 308.49 .21 308.37 0 265.74 0"/><polygon class="cls-236" points="335.29 0 335.17 .21 345.89 18.91 367.33 18.91 378.04 .21 377.92 0 335.29 0"/><polygon class="cls-265" points="404.84 0 404.72 .21 415.44 18.91 436.88 18.91 447.6 .21 447.48 0 404.84 0"/><polygon class="cls-289" points="474.4 0 474.28 .21 484.99 18.91 506.43 18.91 517.15 .21 517.03 0 474.4 0"/><polygon class="cls-188" points="543.95 0 543.83 .21 554.55 18.91 575.99 18.91 586.7 .21 586.58 0 543.95 0"/><polygon class="cls-222" points="613.5 0 613.38 .21 624.1 18.91 645.54 18.91 656.26 .21 656.14 0 613.5 0"/><polygon class="cls-210" points="683.06 0 682.94 .21 693.65 18.91 715.09 18.91 725.81 .21 725.69 0 683.06 0"/></g></g></svg>